<svg width="718" height="690" viewBox="0 0 718 690" fill="none" xmlns="http://www.w3.org/2000/svg">
<path d="M707.989 210.745C695.855 209.527 684.343 205.102 672.519 202.28C669.963 201.653 667.406 201.026 664.852 200.719C667.715 199.102 669.938 196.847 671.516 193.635C672.146 192.029 672.14 190.748 671.814 189.468C678.176 185.589 684.22 181.712 690.579 177.193C696.938 172.674 707.129 168.455 710.599 160.747C712.193 160.418 713.466 159.77 715.06 159.442C713.078 146.635 709.821 134.156 704.652 122.328C696.25 102.506 690.724 83.3106 677.229 66.079C665.338 50.4411 651.261 43.7864 633.35 36.5109C610.643 27.3382 585.757 28.7506 562.119 24.7095C540.397 20.9786 521.207 13.0691 498.867 13.1865C485.463 13.2569 472.068 14.9294 458.983 14.9981C448.132 15.0552 437.9 11.2639 427.37 11.6397C422.902 11.6632 419.077 12.6445 414.606 12.0272C408.218 11.0995 402.774 7.60354 396.699 5.39256C387.748 2.55585 379.133 2.92154 369.879 3.29058C348.82 4.04209 328.685 -1.29917 307.958 2.01391C297.435 3.67129 289.159 7.88018 278.96 10.4971C273.861 11.8056 269.405 14.0719 265.269 16.657C263.993 16.6637 262.716 16.6704 261.44 16.6771C239.73 15.1891 217.41 19.1514 196.688 23.4257C162.577 30.6541 129.206 57.1035 110.849 86.3578C100.721 102.432 97.6288 121.353 89.0996 138.059C79.6281 157.654 72.3822 175.636 65.4706 196.499C59.1855 215.116 53.537 233.409 44.0538 250.762C35.2038 267.149 30.1986 286.401 27.1048 305.001C23.6937 323.924 21.2483 344.443 13.045 362.429C9.88897 369.175 4.81306 374.969 2.61613 382.03C-0.524739 391.659 0.486557 401.907 1.81531 411.832C4.13852 428.802 8.37487 445.442 10.6998 462.732C13.3573 482.584 16.6631 504.355 23.7819 522.901C29.9297 538.89 44.0408 551.953 55.2763 564.39C67.1535 577.465 82.8317 585.072 99.773 590.11C120.228 595.77 140.341 596.946 159.543 607.098C161.784 608.368 163.703 609.319 165.942 610.269C166.582 610.586 167.224 611.223 167.862 611.22C168.181 611.218 168.181 611.218 168.501 611.216C170.42 612.168 172.659 613.117 174.578 613.748C175.211 612.783 175.846 612.139 176.16 611.176C182.536 609.861 188.259 605.666 193.02 600.834C203.496 590.205 211.406 577.027 221.882 566.398C232.993 555.125 247.965 549.92 259.72 539.605C260.354 538.961 260.991 538.637 261.307 537.994C262.58 537.347 263.851 536.379 265.123 535.411C267.029 533.799 268.291 530.908 270.516 529.295C270.835 529.293 271.155 529.291 271.156 529.612C271.17 532.175 271.185 535.059 270.879 537.624C269.67 550.447 263.665 561.693 262.456 574.516C261.249 587.659 259.398 599.845 257.231 612.673C255.686 622.293 255.09 630.307 257.374 639.907C258.026 642.467 260.596 645.658 263.47 645.963C264.108 645.96 264.748 646.277 265.386 646.273C268.26 646.579 270.491 645.926 272.399 644.634C290.608 648.063 308.193 654.059 326.088 658.451C326.451 666.78 328.724 674.137 335.108 674.424C335.747 674.421 335.742 673.459 335.103 673.463C330.308 671.886 328.998 665.484 328.966 659.397C338.871 661.588 348.136 663.461 357.102 669.182C365.107 674.266 370.884 680.324 379.838 683.801C399.665 691.387 420.725 690.636 441.125 685.722C458.338 681.787 474.896 674.651 491.787 670.076C511.864 664.524 533.246 664.411 553.651 660.459C568.955 657.495 585.207 652.924 597.279 642.286C610.62 630.361 617.55 613.022 625.767 597.599C646.314 560.002 662.056 518.906 675.566 478.463C689.079 438.34 706.107 399.16 712.906 356.829C719.711 315.78 704.82 275.806 712.587 235.393C712.897 233.789 713.206 231.865 713.517 230.262C720.513 225.419 718.527 211.972 707.989 210.745ZM116.542 137.274C123.141 117.694 127.832 99.4056 141.15 82.9944C153.835 67.5478 172.903 52.0677 191.376 44.9214C201.568 41.0229 212.733 40.003 223.251 37.3844C234.088 34.7641 244.603 31.5047 255.769 30.8052C274.593 29.745 291.167 25.4925 309.66 22.1912C310.935 21.864 311.249 20.9011 311.242 19.6195C323.047 18.9167 334.542 20.1379 347.637 21.9916C365.524 24.7813 381.466 21.8138 398.1 29.096C412.814 35.427 429.406 34.6989 445.055 36.8596C462.942 39.6493 481.437 36.6684 499.312 37.2153C519.74 37.7488 536.057 45.353 555.55 50.0568C574.083 54.4453 592.912 54.3463 610.821 61.3013C619.136 64.4618 625.868 70.1939 633.235 75.2818C640.6 80.0494 642.544 85.4862 647.37 92.8304C656.054 105.601 658.686 120.647 665.141 134.391C668.691 141.742 672.876 148.769 675.152 156.768C676.454 161.567 677.116 166.049 677.462 171.174C673.011 174.402 668.877 177.307 664.105 180.216C659.332 182.804 654.56 185.713 650.107 188.62C649.788 188.622 649.788 188.622 649.469 188.624C648.819 186.384 647.848 183.826 647.198 181.587C642.745 184.494 637.971 187.082 633.519 189.989C634.165 191.588 634.491 192.868 635.138 194.467C630.044 196.736 624.951 199.326 619.856 201.596C616.672 202.894 613.808 204.512 610.946 206.449C610.62 205.169 609.975 203.891 609.651 202.931C605.512 204.876 601.375 207.14 597.236 209.084C597.883 210.683 598.53 212.282 598.857 213.882C591.223 218.729 583.589 223.575 575.307 226.502C574.979 224.902 574.332 223.303 573.686 221.704C570.185 223.645 567.004 225.585 563.505 227.846C565.449 233.283 567.073 238.721 567.743 244.806C569.079 256.013 567.535 265.954 567.275 277.17C567.297 281.335 566.372 287.428 567.67 291.587C569.615 297.344 574.74 300.842 576.368 306.921C579.626 319.72 573.63 332.569 573.378 345.387C573.128 358.525 569.681 370.719 566.875 383.23C569.112 383.859 571.35 384.488 573.268 385.119C577.994 373.559 583.042 362.318 583.612 349.498C584.504 336.997 587.952 325.124 587.249 312.631C586.543 299.818 575.331 291.867 574.944 279.052C574.593 272.966 577.437 267.504 578.043 261.413C578.653 255.963 578.623 250.195 578.275 244.75C577.937 241.227 577.6 237.705 576.944 234.504C585.563 234.779 594.166 232.17 602.128 228.925C602.129 229.245 602.131 229.565 602.131 229.565C603.796 242.694 601.624 254.56 601.691 267.377C601.718 272.503 600.477 279.238 602.098 284.036C604.368 290.753 610.453 294.886 612.086 301.927C615.675 316.968 608.734 332.064 608.494 347.124C608.301 371.157 598.519 392.356 596.728 416.076C596.097 417.361 595.146 418.647 594.834 419.931C594.52 420.894 593.886 421.858 593.572 422.821C592.279 419.624 591.303 416.104 590.01 412.907C589.363 411.308 586.813 411.962 587.46 413.561C589.077 417.718 590.695 421.875 591.995 426.354C589.783 430.531 587.573 435.028 585.361 439.205C579.672 449.809 573.338 459.134 571.485 470.999C568.709 489.278 560.492 504.701 548.432 517.581C547.461 515.023 546.808 512.142 545.837 509.584C545.19 507.985 542.96 508.638 543.287 510.238C544.261 513.437 545.236 516.636 546.21 519.835C540.178 525.955 533.505 531.437 526.188 535.961C523.59 527.324 520.674 519.008 517.439 510.695C526.343 504.56 535.24 497.144 537.741 487.198C541.552 483.653 544.07 476.911 545.64 472.097C550.432 473.033 554.902 473.33 559.044 472.026C561.592 471.051 563.169 467.519 560.923 465.287C557.396 462.102 553.554 459.879 549.394 457.658C549.392 457.338 549.39 457.017 549.708 456.695C533.41 452.615 517.401 442.767 503.953 434.507C495.95 429.742 487.304 424.341 478.976 418.617C475.456 416.713 471.614 414.49 468.092 412.266C468.409 411.944 468.725 411.301 469.043 410.979C466.158 408.751 463.594 406.522 461.027 403.972C460.71 404.294 460.711 404.615 460.394 404.937C460.078 405.579 459.762 406.222 459.448 407.185C452.407 403.377 444.731 400.213 437.384 398.97C437.065 398.971 436.746 398.973 436.426 398.975C438.959 395.117 441.492 391.258 443.709 388.042C448.454 380.007 445.218 371.373 447.725 362.708C451.172 350.515 460.067 342.778 462.551 329.628C464.419 320.646 464.044 310.075 461.444 301.117C459.166 292.798 453.395 287.701 446.676 284.533C445.362 277.49 444.051 270.768 442.739 264.047C445.618 265.313 448.814 266.258 452.011 267.202C467.991 271.604 474.727 277.977 478.642 294.297C480.602 302.938 482.892 313.5 482.623 323.114C482.304 323.116 482.306 323.436 482.307 323.756C480.134 335.303 477.007 347.495 473.236 358.729C471.664 363.223 469.133 367.402 468.52 372.212C468.224 376.699 469.843 381.176 469.548 385.664C469.256 390.792 467.359 394.326 464.825 397.864C467.707 399.772 470.589 401.679 473.153 403.588C475.366 399.731 476.94 395.558 477.555 391.069C479.093 380.166 477.131 371.205 480.267 360.615C482.777 352.271 483.685 342.974 483.957 334.001C487.741 325.33 487.373 316.04 487.002 306.109C486.3 293.937 486.207 276.314 478.176 266.424C475.286 262.914 471.443 260.371 466.966 258.793C465.318 248.868 461.756 238.954 458.193 229.04C464.272 231.892 470.35 234.744 476.426 236.955C476.748 237.594 477.073 238.553 477.076 239.194C477.4 240.154 477.724 241.113 477.729 242.074C477.407 241.435 477.775 250.725 476.478 246.887C476.156 246.248 475.519 246.572 475.522 247.213C475.847 248.172 475.852 249.133 476.176 250.093C476.177 250.413 476.817 250.73 477.137 250.729C481.919 249.742 481.25 243.978 479.626 238.54C487.623 242.022 491.805 248.409 497.585 255.107C507.539 266.59 513.364 281.939 511.851 297.647C510.941 306.624 508.757 316.248 506.25 324.912C503.121 336.784 503.174 347.037 501.643 359.221C500.417 368.84 500.148 378.454 498.922 388.073C497.693 397.051 499.34 406.975 497.789 415.314C497.476 416.597 497.164 417.881 496.534 419.486C498.776 421.076 501.017 422.346 503.579 423.935C508.011 417.183 507.66 411.097 508.893 402.759C511.347 383.842 514.44 365.242 514.341 346.338C514.243 327.754 524.356 308.796 522.661 289.901C520.635 268.764 513.545 255.664 501.015 239.709C500.371 238.751 499.73 238.114 499.088 237.476C499.407 237.475 499.725 237.153 499.723 236.832C500.61 223.37 496.711 210.254 494.408 197.129C494.403 196.167 494.079 195.208 494.074 194.247C496.949 194.872 500.147 196.137 502.711 198.046C505.274 199.955 507.52 202.186 509.767 204.738C510.116 210.503 510.466 216.269 511.134 222.033C511.138 222.674 512.095 222.669 512.092 222.028C512.707 217.539 512.683 213.053 512.658 208.247C514.905 210.799 517.153 213.35 519.398 215.581C529.982 225.459 533.871 236.653 534.585 251.068C534.938 257.474 533.695 263.889 534.686 270.292C535.354 276.056 538.252 280.847 539.878 286.606C542.807 297.485 540.305 307.11 539.405 318.009C538.199 331.473 539.23 345.566 538.024 359.03C537.423 366.082 534.267 372.827 532.067 379.247C534.941 379.553 537.497 380.18 540.371 380.485C542.588 377.27 545.446 374.371 547.342 370.836C552.401 361.838 552.021 350.305 552.606 340.049C553.491 326.266 556.919 310.548 554.931 296.78C552.618 281.733 547.127 269.266 546.727 253.888C546.353 243.316 545.328 230.505 540.171 220.919C537.27 215.487 532.779 211.025 528.289 206.883C523.478 202.423 519.939 196.994 515.127 192.213C513.843 190.939 512.562 189.984 511.28 189.03C510.936 184.225 510.271 179.102 509.926 174.298C509.592 171.416 509.258 168.534 509.244 165.97C513.719 167.228 518.827 167.522 523.935 167.816C526.169 167.804 527.766 168.116 529.682 168.426C528.757 174.519 527.833 180.932 526.27 187.028C525.957 188.312 527.874 188.622 528.188 187.659C529.752 181.563 530.996 175.468 531.92 169.055C550.46 174.725 551.858 197.788 558.332 215.056C559.304 217.935 560.596 220.812 561.568 223.691C564.746 221.111 567.924 218.531 571.104 216.271L571.102 215.95C562.707 197.41 562.275 175.945 544.652 162.58C541.128 160.035 537.291 158.774 533.458 158.153C534.061 151.421 534.662 144.369 534.946 137.639C540.378 138.892 545.807 139.504 551.551 139.474C582.196 140.594 582.999 171.991 591.416 194.696C592.385 196.934 593.035 199.174 594.004 201.411C597.822 199.148 601.959 196.884 606.098 194.94C596.411 173.523 595.961 148.533 575.774 133.259C566.482 126.258 555.003 128.241 544.146 127.017C530.414 125.487 521.414 113.358 508.625 108.94C483.368 100.421 456.261 104.408 430.42 106.146C417.977 106.853 410.631 105.93 399.436 101.182C388.562 96.7538 378.642 91.6793 367.139 89.1764C359.151 87.2959 350.85 86.6987 342.868 86.0998C348.266 80.9448 353.984 75.7881 359.063 70.6347C360.015 69.6685 358.41 67.7544 357.459 69.0411C351.746 75.159 345.392 80.6395 339.038 86.1199C322.441 85.8867 305.856 87.8964 289.269 89.5856C279.062 90.6005 268.524 89.3742 258.316 90.3891C251.618 91.0652 244.926 93.0228 238.231 94.3397C225.161 97.2921 213.704 103.44 201.283 108.312C191.408 111.888 183.165 122.185 179.065 131.498C177.172 135.674 176.238 140.164 175.302 144.335C173.406 147.869 172.148 151.401 170.89 154.932C161.974 158.824 154.023 163.992 146.073 169.481C145.084 163.398 144.094 157.315 144.062 151.228C144.057 150.267 144.052 149.305 144.047 148.344C151.362 143.499 158.356 138.336 165.028 132.533C166.299 131.566 164.376 129.974 163.423 130.94C157.706 136.096 151.666 140.614 145.305 144.813C153.517 128.429 157.872 106.938 170.251 94.0561C170.568 93.734 170.568 93.734 170.886 93.4119C175.33 88.9027 181.056 85.3481 188.39 84.0279C191.897 83.3686 195.081 82.0702 197.945 80.4531C199.227 81.4076 201.135 80.1159 201.127 78.5139C206.537 75.6017 211.944 72.0487 218.32 70.7335C236.49 66.7931 254.043 66.7008 272.545 65.0015C278.924 64.3272 285.298 62.6916 291.676 61.6968C299.009 60.3766 305.397 61.3043 312.737 61.2657C331.247 61.1684 346.235 58.8468 364.77 63.5556C385.545 69.2139 404.782 86.0949 426.805 86.2995C440.208 86.2291 454.244 84.8737 467.322 83.5233C483.269 81.517 496.36 82.7299 512.008 84.5701C527.656 86.4104 535.984 92.1341 548.796 101.038C558.725 107.715 569.262 108.621 581.071 108.879C616.503 109.975 617.331 146.177 627.043 172.4C628.338 175.918 629.953 179.434 631.248 182.952C636.025 181.004 641.121 179.055 645.898 177.108C645.253 175.829 644.927 174.549 644.282 173.271C632.981 148.338 632.51 119.503 608.798 101.364C597.903 93.0904 585.151 95.7207 572.377 94.1858C556.41 92.3472 546.124 78.303 531.416 73.2536C502.323 63.4736 471.071 68.1236 441.401 70.2021C427.045 71.2387 418.419 69.682 405.627 64.6226C393.152 59.2411 381.634 53.8545 368.214 50.7209C338.179 44.15 308.518 47.8304 278.537 51.5125C266.736 52.8562 254.6 51.3179 242.797 52.3412C234.822 53.0239 227.175 55.307 219.524 56.9493C204.222 60.2339 191.176 67.672 176.842 72.874C165.694 77.098 155.861 88.6846 151.13 99.2832C148.921 104.101 147.99 109.233 146.741 114.366C141.373 125.288 137.605 137.163 136.391 149.025C136.391 149.025 136.072 149.027 136.074 149.347C128.119 153.875 121.45 160.318 113.496 164.846C110.951 166.461 107.766 167.76 104.902 169.377C108.354 158.144 113.089 148.186 116.542 137.274ZM638.748 395.669C638.431 395.991 638.433 396.311 638.436 396.952C635.937 407.218 633.757 417.483 633.174 428.06C632.225 429.667 631.593 430.952 630.962 432.237C627.806 438.982 624.331 445.729 620.854 452.156C619.866 446.394 618.877 440.311 618.527 434.545C618.164 426.216 618.122 418.206 616.802 409.882C615.804 402.198 613.531 394.84 611.259 387.482C615.985 375.923 620.712 364.363 621.281 351.223C622.161 336.479 626.239 323 625.523 308.265C624.806 293.209 611.674 284.306 610.955 268.93C610.597 261.562 613.755 255.137 614.675 248.084C615.281 241.992 615.244 234.943 614.892 228.537C614.881 226.615 614.551 224.373 614.221 222.453C618.36 220.508 622.18 218.566 626.322 217.262C629.189 216.286 632.054 214.989 634.92 213.693C635.241 214.011 635.56 214.01 636.2 214.327C637.159 214.642 638.439 215.276 639.398 215.592C640.747 229.362 638.58 242.19 638.333 255.97C638.364 261.737 637.129 269.754 638.754 275.192C641.347 282.869 648.393 287.638 650.352 295.958C654.593 313.559 646.385 330.584 646.476 347.886C646.565 364.868 642.497 380.269 638.748 395.669ZM587.124 531.796C583.88 521.88 580.637 511.965 577.712 502.047C577.385 500.447 574.516 501.103 575.162 502.701C578.09 513.26 581.656 523.815 585.222 534.37C578.25 543.698 569.996 552.072 560.459 559.172C558.178 550.212 555.578 541.254 552.976 531.976C559.647 526.173 565.357 519.414 567.55 511.713C572.633 507.2 575.772 497.251 577.657 491.474C581.118 482.163 581.066 472.231 583.889 462.924C585.193 468.044 586.495 472.843 587.798 477.963C590.083 487.563 591.729 497.167 593.696 507.09C594.351 510.29 595.006 513.491 595.66 516.371C593.137 522.152 590.291 527.294 587.124 531.796ZM494.179 578.745C492.543 571.064 490.905 563.062 489.269 555.38C495.325 553.747 500.438 555.001 506.824 555.609C515.125 556.206 521.173 553.29 527.537 549.732C529.812 557.41 531.767 565.09 533.724 573.09C521.286 574.758 508.186 571.943 495.772 578.096C495.133 578.099 494.816 578.421 494.179 578.745ZM470.806 625.008C470.812 626.289 470.821 627.891 470.827 629.173C462.224 631.782 453.624 635.031 445.023 637.96C444.987 631.231 444.633 624.504 443.961 618.1C448.42 616.474 452.882 615.169 457.024 613.866C461.167 612.883 465.31 611.579 469.45 609.955C470.115 615.078 470.779 619.881 470.806 625.008ZM450.567 599.801C447.698 600.457 445.15 601.432 442.602 602.406C441.602 594.401 440.924 586.715 440.243 578.708C440.242 578.388 440.242 578.388 440.24 578.067C441.515 577.74 443.107 577.091 444.382 576.764C451.075 575.127 457.764 572.528 463.812 569.613C465.129 577.296 466.127 584.98 467.125 592.665C467.127 592.985 467.128 593.306 467.128 593.306C462.356 596.215 456.943 598.486 450.567 599.801ZM418.705 609.902C418.342 601.573 417.66 593.245 416.98 585.239C423.994 583.92 431.002 581.32 438.011 579.04C438.019 580.642 438.026 581.924 438.354 583.524C438.708 590.251 439.38 596.656 440.054 603.381C434.958 605.33 430.181 607.278 425.083 608.907C422.852 609.559 420.62 609.891 418.705 609.902ZM310.915 625.528C310.922 626.809 310.927 627.77 310.934 629.052C302.949 627.812 295.281 626.251 287.296 625.011C287.272 620.525 287.887 616.036 287.874 613.473C287.853 609.628 287.835 606.103 287.815 602.259C291.965 602.557 296.436 603.175 300.59 604.114C304.106 605.057 307.623 606.32 310.823 607.905C310.853 613.673 310.885 619.76 310.915 625.528ZM295.428 532.688C301.495 533.297 307.558 533.265 313.629 534.515C313.667 541.885 313.387 549.256 313.105 556.306C309.908 555.362 306.395 554.739 302.562 554.119C298.09 553.501 293.621 553.204 289.468 552.585C290.071 545.854 290.673 538.801 290.956 532.071C291.915 532.386 293.511 532.378 295.428 532.688ZM192.19 442.874C185.122 433.939 173.87 418.298 173.183 409.009C172.831 402.923 176.325 399.701 178.532 394.563C181.69 388.138 182.931 381.402 186.41 375.296C190.202 368.227 197.515 363.062 200.349 355.678C202.87 349.576 204.11 342.521 205.989 335.782C208.863 336.088 211.737 336.393 214.93 336.696C220.038 336.99 226.103 337.279 231.524 336.289C227.407 342.398 226.804 349.13 222.368 355.242C216.027 363.285 209.043 370.371 203.986 379.69C198.3 390.934 189.134 407.964 199.72 418.162C206.456 424.535 216.369 428.328 224.054 433.094C233.339 438.812 239.436 445.189 249.985 448.337C258.294 450.537 266.269 449.854 274.258 451.734C281.927 453.617 286.733 457.116 295.348 456.75C306.514 456.051 310.021 455.391 318.69 465.279C320.938 467.83 322.229 470.707 324.477 473.259C331.216 480.273 337.278 479.92 346.545 482.114C358.687 484.934 371.142 486.471 383.6 488.648C394.461 490.514 407.243 493.651 418.077 490.39C426.68 487.781 435.908 482.606 443.863 478.078C450.864 474.197 457.222 469.357 462.615 463.241C472.176 460.627 478.191 451.304 484.854 443.899C486.122 442.29 487.392 441.002 488.981 439.712C493.143 442.253 496.984 444.476 500.828 447.019C502.749 448.291 504.671 449.562 506.911 450.832C505.329 453.404 503.429 456.298 502.166 458.868C496.16 469.793 487.248 474.326 476.103 479.191C465.913 483.41 454.417 482.188 445.196 488.645C438.2 493.488 430.903 501.857 423.897 504.778C418.801 506.727 408.28 508.705 402.218 509.057C396.156 509.41 391.048 509.116 385.314 511.069C383.402 511.719 382.127 512.047 380.854 512.694C380.53 511.734 380.527 511.094 380.202 510.134C379.876 508.854 378.282 509.183 377.968 510.146C377.323 508.868 375.723 507.915 374.125 507.603C363.273 507.339 352.417 506.435 341.561 505.531C329.427 504.313 327.482 498.556 318.19 491.555C302.171 479.784 288.433 476.973 268.959 475.793C263.212 475.503 258.414 473.286 252.343 472.036C242.119 469.847 226.777 465.441 217.493 460.043C208.851 455.282 201.188 454.682 195.081 446.383C194.76 446.064 194.439 445.746 194.119 445.427L194.436 445.105C195.385 443.498 193.46 441.585 192.19 442.874ZM178.584 525.933C183.38 527.51 188.177 529.407 192.336 531.308C189.803 535.166 187.27 539.024 185.058 543.201C182.844 547.058 180.95 550.913 178.736 554.769C173.935 552.231 168.817 550.015 163.701 548.12C166.867 543.297 170.033 538.474 173.199 533.651C174.78 530.759 176.362 528.187 178.584 525.933C178.263 525.614 178.263 525.614 178.584 525.933ZM138.965 578.048C132.894 576.799 127.143 575.547 121.392 574.296C122.341 572.689 123.609 571.08 124.879 569.792C128.683 564.965 133.129 560.777 137.253 555.949C138.84 554.338 140.107 552.409 141.375 550.8C144.255 552.387 147.134 553.654 150.652 554.917C151.93 555.231 153.21 555.865 154.488 556.179C149.421 563.575 144.67 570.649 139.922 578.043C139.605 578.365 139.284 578.047 138.965 578.048ZM157.686 557.443C156.435 562.256 151.992 567.086 149.137 570.305C148.819 570.627 148.819 570.627 148.502 570.949C151.35 566.448 154.518 561.946 157.686 557.443ZM170.638 532.063C167.473 537.206 164.307 542.029 160.824 547.174C156.666 545.593 152.511 544.334 148.354 542.753C152.16 538.247 155.645 533.423 159.451 528.917C161.67 526.022 164.208 523.125 166.427 520.229C169.309 522.137 172.19 523.723 175.707 524.987C173.804 527.24 172.22 529.491 170.638 532.063ZM143.234 540.217C137.473 537.043 133.937 532.255 129.128 528.115C126.565 526.206 124.319 523.975 121.437 522.068C127.787 515.946 134.457 509.823 141.127 503.701C141.445 503.378 141.445 503.378 141.762 503.056C144.965 505.282 148.488 507.507 151.692 510.053C156.177 513.234 160.022 516.097 164.184 518.639C161.65 522.177 158.796 525.716 155.942 529.256C152.454 533.44 149.282 537.301 146.113 541.483C144.833 540.849 144.193 540.532 143.234 540.217ZM101.574 507.753C95.8129 504.579 91.3449 504.603 86.2152 500.144C85.8943 499.825 85.5735 499.507 85.2527 499.188C92.88 493.06 100.183 485.972 106.848 478.888C109.111 484.323 112.324 488.472 118.082 491.005C119.681 491.637 121.28 492.27 122.879 492.902C120.024 496.121 117.17 499.661 113.995 502.882C111.456 505.458 109.235 508.034 106.697 510.931C105.416 509.976 103.494 508.705 101.574 507.753ZM36.9391 415.172C48.386 407.102 59.8329 399.031 71.2798 390.961C70.0386 397.696 68.799 404.752 66.5987 411.172C56.7509 419.875 47.2239 428.896 38.0177 438.237C37.0216 430.872 36.3429 423.186 36.9391 415.172ZM134.295 175.31C133.024 176.278 131.433 177.248 130.163 178.536C118.718 186.927 106.305 193.401 94.215 200.513C94.5257 198.91 94.8381 197.626 95.1488 196.023C96.7007 187.684 99.5309 179.658 102.682 171.952C108.411 169.038 114.139 165.804 119.546 162.251C124.632 158.379 130.04 155.146 135.447 151.593C135.452 152.555 135.138 153.518 135.145 154.799C134.861 161.529 134.579 168.58 134.295 175.31ZM93.2761 204.043C105.366 196.93 117.779 190.457 129.224 182.066C130.813 180.776 132.404 179.806 134.312 178.514C134.033 186.206 133.434 193.578 132.198 201.275C126.154 205.152 120.109 208.708 114.064 212.264C105.792 217.114 97.84 222.283 89.8902 227.771C90.8055 219.756 92.0399 211.739 93.2761 204.043ZM296.771 120.306C300.922 120.605 302.506 118.353 305.363 115.455C310.444 110.622 316.487 106.745 321.889 102.231C324.113 100.297 326.654 98.0404 328.878 96.1062C337.812 95.7389 346.108 95.3748 355.371 96.9282C346.478 104.985 337.266 113.365 327.733 121.105C318.162 121.796 308.274 122.809 298.705 123.821C289.774 124.829 281.15 123.592 272.218 124.28C266.477 124.951 260.741 126.583 255.003 127.895C243.846 130.517 233.98 135.696 223.47 139.916C215.19 143.164 207.893 151.533 204.425 159.562C202.848 163.095 201.91 166.945 200.973 170.794C196.237 180.432 193.418 190.7 193.156 201.595C192.874 208.646 192.908 215.054 192.305 221.786C191.986 221.788 191.667 221.789 191.028 221.793C184.345 225.352 177.662 228.912 170.98 232.792C172.218 225.416 173.775 218.038 174.693 210.664C176.223 198.16 171.695 186.649 171.631 174.473C171.624 173.192 171.617 171.91 171.93 170.627C179.515 156.488 183.24 136.603 194.35 125.01L194.667 124.688C198.796 120.821 203.568 117.912 209.944 116.597C212.813 115.941 215.68 114.965 218.226 113.67C219.508 114.624 220.777 113.336 221.09 112.053C225.863 109.464 230.316 106.557 236.054 105.245C251.992 101.637 266.994 101.878 283.263 100.511C289.006 100.161 294.104 98.5319 299.843 97.5405C306.221 96.5457 311.649 97.158 318.032 97.1245C320.266 97.1127 322.5 97.101 324.734 97.0892C319.652 101.602 314.567 105.794 309.483 109.986C305.351 113.212 301.867 118.357 296.45 119.987C295.807 119.03 296.131 119.989 296.771 120.306ZM505.518 124.977C505.51 123.375 502.957 123.388 502.965 124.99C503.649 133.638 504.332 142.285 505.335 150.931C499.252 147.118 493.482 142.342 486.766 139.814C465.026 132.559 442.065 135.884 420.053 137.602C409.525 138.298 403.137 137.37 393.541 133.255C384.266 129.459 375.945 125.017 365.722 123.148C354.22 120.645 342.729 120.385 331.561 120.764C332.196 120.12 332.832 119.796 333.467 119.152C342.048 112.378 350.306 104.645 358.565 97.2319C360.162 97.5439 361.759 97.8559 363.677 98.4867C381.574 103.199 398.249 118.171 417.399 118.391C428.888 118.33 441.329 117.304 452.811 115.962C466.845 114.286 478.02 115.188 491.753 117.039C505.484 118.568 512.532 123.658 523.743 131.289C526.625 133.197 529.504 134.463 532.381 135.409C532.418 142.458 531.817 149.51 531.216 156.563C526.746 156.266 522.278 156.289 517.809 155.992C514.616 155.689 511.417 154.424 508.539 153.157C507.21 143.231 506.204 133.945 505.518 124.977ZM507.365 172.709C507.706 176.873 508.047 181.036 508.389 185.52C502.947 182.345 497.836 181.41 491.769 180.801C490.442 171.196 488.796 161.592 486.83 151.99C490.989 153.89 494.834 156.754 499.638 159.933C501.88 161.523 504.119 162.473 506.358 163.422C506.694 166.625 507.03 169.827 507.365 172.709ZM491.198 193.621C493.187 207.709 495.811 221.152 497.481 235.242C490.743 228.549 483.716 227.304 474.764 224.467C471.506 211.668 469.524 198.861 467.222 186.057C472.014 186.993 476.808 188.249 481.925 190.145C484.802 191.091 487.677 191.717 490.872 192.341C491.195 192.98 491.196 193.3 491.198 193.621ZM447.135 311.125C447.138 311.765 448.096 311.76 448.092 311.12C448.391 307.273 448.369 303.108 448.028 298.944C450.593 301.174 452.523 304.047 453.497 307.246C456.763 321.327 453.321 334.482 445.083 345.74C440.329 352.174 439.397 356.985 438.163 365.002C437.237 371.094 437.589 377.18 435.064 382.641C431.594 390.349 423.345 399.684 416.349 404.527C407.126 410.664 398.555 419.36 386.749 419.742C372.07 420.14 359.262 412.197 348.998 402.318C337.771 391.483 336.741 377.71 318.859 375.882C308.64 374.654 298.132 379.195 287.926 380.53C283.142 381.196 273.902 384.129 273.875 379.002C273.85 374.196 280.856 371.275 284.029 367.734C290.059 361.294 292.573 353.911 295.724 346.205C300.133 334.967 307.441 328.841 313.775 319.515C320.743 309.225 317.487 297.067 316.148 285.218C316.468 285.217 316.466 284.896 316.464 284.576C317.726 281.686 317.405 281.367 320.912 280.708C326.648 279.075 323.149 281.337 326.359 284.844C327.965 286.758 328.618 289.639 330.226 291.873C333.439 296.022 338.569 300.481 344.31 299.81C349.732 299.14 352.9 294.638 356.392 291.095C369.413 278.851 381.882 283.271 397.216 286.074C402.647 287.007 410.63 287.926 418.936 289.485C420.255 297.488 422.212 305.488 423.53 313.492C421.607 311.9 419.686 310.628 417.447 309.679C411.047 306.508 399.884 307.848 393.187 308.845C383.621 310.497 378.856 314.688 369.263 311.213C355.196 306.481 340.538 310.724 330.7 321.349C326.887 324.573 323.721 329.396 320.548 332.937C316.423 337.445 312.612 340.989 311.686 347.082C311.073 351.892 311.732 355.733 316.213 358.273C319.735 360.497 328.02 357.89 331.853 358.511C343.031 360.054 344.956 361.967 349.147 369.955C354.305 379.861 359.85 402.581 371.994 405.722C381.263 408.236 389.518 400.183 396.838 396.299C404.158 392.416 411.807 390.453 416.557 383.379C421.941 375.34 421.245 364.45 425.348 355.777C428.506 349.352 431.991 344.527 433.869 337.468C435.745 330.089 432.193 322.097 426.416 316.04C425.435 311.559 424.456 307.399 423.477 303.239C422.496 298.758 421.515 294.277 420.534 289.797C428.84 291.355 437.468 293.553 443.552 297.366C445.808 301.519 446.471 306.322 447.135 311.125ZM411.876 221.273C418.569 219.636 425.264 218.319 432.608 218.921C435.213 228.84 436.861 238.765 438.19 248.691C435.632 247.743 432.754 246.797 429.882 246.812C425.413 246.515 421.59 247.817 417.122 247.84C416.754 238.55 415.427 228.944 411.876 221.273ZM417.574 273.15C417.901 274.751 417.91 276.353 418.237 277.953C415.044 277.65 411.851 277.346 408.658 277.042C397.801 275.818 384.686 270.119 373.848 272.739C368.749 274.048 362.699 276.643 358.246 279.55C356.338 280.842 355.07 282.451 353.481 283.741C351.894 285.351 350.624 286.639 349.356 288.248C344.562 286.992 339.447 285.416 334.653 284.16C329.846 280.34 331.393 271.04 323.09 270.122C319.578 269.82 317.033 271.436 315.449 273.687C314.81 273.37 314.173 273.694 313.857 274.336C313.546 275.94 313.555 277.542 313.244 279.146C312.932 280.429 312.937 281.39 312.944 282.672C312.945 282.992 312.947 283.313 313.268 283.632C312.974 288.439 313.318 293.244 312.709 298.694C311.802 308.311 310.231 313.126 303.247 320.212C299.12 324.399 295.625 327.301 292.46 332.444C285.181 344.017 280.453 355.257 269.968 364.283C264.249 369.12 257.567 373 260.164 381.317C266.336 401.791 303.574 382.371 316.344 383.265C331.668 384.145 338.14 401.093 347.452 411.939C355.802 421.828 363.49 427.234 376.269 429.73C385.534 431.604 394.472 431.878 403.063 427.026C411.655 422.175 422.463 414.108 429.447 407.022C430.716 405.413 432.303 403.803 433.571 402.194C433.895 403.154 434.539 404.111 435.818 404.746C442.851 406.951 449.259 411.724 455.348 416.498C450.286 424.856 447.083 422.63 441.037 426.186C435.631 429.739 429.911 434.575 424.182 437.489C418.453 440.403 412.073 441.077 406.341 443.35C400.608 445.623 395.838 448.853 389.462 450.168C379.261 452.464 372.549 450.577 364.226 445.815C361.345 444.228 359.105 442.958 355.907 441.693C349.833 439.802 343.136 440.799 337.69 436.982C331.924 432.847 331.583 428.684 327.723 422.936C322.899 415.913 316.81 411.138 309.132 407.654C289.937 398.783 276.516 395.65 255.147 398.325C247.812 399.325 235.394 404.838 236.274 390.094C236.56 383.684 247.686 375.295 251.49 370.468C256.879 363.391 264.501 356.302 269.249 348.907C273.366 342.798 275.234 333.816 277.431 326.756C280.256 317.769 284.682 309.735 287.508 301.069C294.108 281.489 284.083 256.55 289.399 235.695C289.718 235.693 289.716 235.372 290.035 235.371C294.471 229.26 296.351 222.521 307.558 229.511C310.44 231.419 312.699 236.213 315.264 238.442C318.148 240.67 321.664 241.613 324.865 243.519C329.987 246.375 334.477 250.517 339.596 253.054C345.678 256.546 353.03 258.751 360.367 258.071C372.488 256.726 379.781 247.716 392.874 249.249C400.538 250.17 407.578 253.658 414.93 255.862C416.238 261.943 416.586 267.388 417.574 273.15ZM428.424 333.652C428.427 334.293 429.383 333.967 429.381 333.647C429.376 332.686 429.371 331.725 429.366 330.763C429.69 331.723 430.014 332.682 430.019 333.644C430.354 336.526 427.51 341.988 426.245 344.237C423.717 349.057 420.548 353.239 418.339 358.057C415.183 364.802 413.646 376.025 407.605 380.222C403.471 383.127 397.092 383.802 392.316 386.07C388.178 388.014 384.046 391.24 379.579 391.584C371.604 392.266 377.033 392.879 372.862 388.735C365.166 381.726 358.723 370.225 352.613 361.606C346.827 353.626 342.35 352.048 332.776 352.098C324.798 352.14 320.988 356.005 321.571 345.428C322.166 337.094 323.128 338.05 327.885 332.258C329.788 330.005 331.691 327.752 333.911 325.177C339.953 320.98 345.039 317.108 352.693 316.107C361.623 314.778 367.713 319.873 376.016 320.79C387.51 321.691 397.672 312.025 410.13 314.203C414.922 315.139 422.931 320.864 427.431 326.929C427.762 329.17 428.093 331.411 428.424 333.652ZM420.154 278.264C419.494 274.102 418.834 269.94 418.491 265.456C418.158 262.894 417.824 260.012 417.807 256.808C419.724 257.118 421.321 257.43 423.237 257.741C430.9 258.341 433.781 259.928 440.177 262.458C441.17 269.181 442.163 275.905 443.155 282.629C435.802 280.104 427.817 278.864 420.154 278.264ZM440.431 249.96C439.1 239.714 437.451 229.469 434.845 219.55C437.4 219.857 439.958 220.805 442.516 221.753C446.675 223.654 451.153 225.552 455.312 227.453C458.556 237.369 462.118 247.283 464.087 257.526C458.333 255.634 452.262 254.384 446.827 252.49C444.909 251.859 442.67 250.91 440.431 249.96ZM432.569 211.552C431.595 208.353 430.302 205.155 429.008 201.958C428.363 200.68 426.452 201.331 427.097 202.609C428.388 205.486 429.363 208.685 430.335 211.564C429.059 211.57 427.78 211.257 426.823 211.262C417.568 211.31 411.19 212.305 402.589 215.234C389.845 219.466 378.677 219.845 365.572 216.069C355.024 212.921 345.747 208.804 336.144 203.407C343.148 200.166 350.141 194.683 356.503 190.804C359.365 188.867 362.227 186.929 364.767 184.352C366.368 185.305 367.967 185.938 369.885 186.568C381.394 190.353 389.675 187.105 400.514 184.805C409.44 182.836 417.747 184.715 426.68 184.027C432.104 183.678 436.889 183.333 441.676 183.307C445.244 194.183 448.494 205.38 451.744 216.578C445.667 214.046 439.274 212.157 432.569 211.552ZM454.299 216.885C451.049 205.687 447.799 194.49 444.229 183.294C447.74 183.276 451.571 183.576 455.404 184.197C458.918 184.819 462.432 185.441 465.627 186.065C467.269 195.028 468.914 204.312 470.557 213.275C471.214 216.796 471.872 220.637 472.529 224.158C466.455 222.268 460.378 219.737 454.622 217.524C454.62 217.203 454.299 216.885 454.299 216.885ZM478.993 178.946C474.52 178.008 470.047 177.07 465.574 176.133C464.264 169.731 462.633 163.011 460.686 156.933C460.36 155.653 458.13 156.306 458.456 157.586C460.403 163.664 462.03 169.743 463.339 175.824C455.992 174.581 448.008 173.662 440.67 174.021C439.049 169.223 437.11 164.747 434.851 159.953C434.206 158.675 432.296 159.646 432.943 161.245C434.88 165.4 436.499 169.877 438.117 174.034C421.523 174.442 405.565 174.205 389.294 175.252C369.195 176.639 356.666 161.005 338.453 156.935C348.951 150.471 360.092 144.966 364.178 133.089C378.884 137.818 392.668 149.28 408.307 149.519C418.2 149.467 428.727 148.45 438.615 147.437C450.417 146.093 459.994 146.684 471.811 148.224C476.282 148.841 480.117 149.782 483.636 151.366C485.922 161.287 487.251 171.213 488.898 181.137C486.021 180.191 482.828 179.887 478.993 178.946ZM164.949 178.353C164.385 192.455 164.454 205.591 162.294 219.701C161.055 226.757 159.813 233.492 158.253 240.229C150.937 244.753 143.937 248.955 136.621 253.479C137.22 246.107 138.139 238.732 139.379 231.677C139.691 230.393 140.003 229.11 139.995 227.508C146.992 222.985 153.672 218.785 160.67 214.262C162.261 213.293 160.651 210.738 159.38 211.706C153.338 215.903 146.976 219.781 140.932 223.658C142.798 214.356 144.345 205.056 145.89 195.435C152.251 191.237 158.291 186.719 164.329 181.881C165.918 180.591 163.674 178.68 162.405 179.969C157.32 184.161 151.915 188.034 146.508 191.587C146.507 191.267 146.507 191.267 146.505 190.946C147.425 183.892 146.431 176.849 145.438 170.125C152.751 164.96 160.703 159.791 168.982 156.223C166.467 163.606 165.23 170.982 164.949 178.353ZM153.9 262.04C153.282 265.888 152.984 270.055 152.368 274.224C146.325 278.1 140.604 282.616 134.881 286.812C133.927 287.458 132.973 288.104 132.021 289.07C134.201 278.805 135.42 267.904 136.322 257.326C143.321 253.124 150.318 248.601 157.318 244.399C156.071 250.173 154.825 255.947 153.9 262.04ZM88.9496 230.98C89.9036 230.335 90.8577 229.689 91.8117 229.043C100.081 223.552 108.991 218.699 117.581 213.528C122.036 210.941 126.808 208.032 131.26 205.125C129.715 214.745 127.53 224.049 125.666 233.671C121.213 236.578 116.758 239.165 112.306 242.072C104.672 246.919 96.7167 251.446 89.0826 256.293C86.5379 257.908 84.3124 259.522 81.7677 261.137C84.9069 251.188 87.087 240.923 88.9496 230.98ZM86.8739 261.11C94.8254 255.942 102.779 251.094 111.051 246.244C115.504 243.337 120.276 240.428 124.728 237.521C123.795 242.012 123.18 246.501 122.246 250.992C121.63 255.16 121.013 259.329 120.716 263.496L120.399 263.818C109.264 270.605 98.1296 277.393 87.6401 285.458C83.1907 289.006 78.7413 292.554 73.9694 295.463C75.5129 285.522 77.3755 275.579 80.5164 265.95C82.4211 264.018 84.6467 262.404 86.8739 261.11ZM74.3037 298.345C79.7139 295.433 84.4791 291.242 89.2476 287.692C99.1005 279.951 109.598 273.487 120.415 267.022C119.189 276.641 117.963 286.26 115.138 295.246C114.194 297.815 113.25 300.383 111.986 302.633C108.806 304.892 105.306 306.833 102.126 309.093C91.3123 316.199 80.4953 322.664 69.3608 329.451C70.9026 319.19 72.1253 308.93 73.6671 298.669C73.6671 298.669 73.9862 298.667 74.3037 298.345ZM108.188 308.74C108.188 308.74 108.507 308.739 108.505 308.418C107.239 310.347 105.974 312.597 104.389 314.528C104.389 314.528 104.39 314.848 104.071 314.85C106.942 314.514 111.094 315.133 113.329 315.442C115.883 315.429 118.436 315.415 120.99 315.722C123.208 312.506 125.423 308.97 126.999 305.117C128.574 301.264 129.83 297.412 131.087 293.561C133.312 291.947 135.538 290.333 137.763 288.719C142.532 285.17 147.301 281.62 152.069 278.07C151.768 281.596 151.15 285.445 150.531 288.973C154.992 287.667 159.774 286.681 164.237 285.696C164.848 280.566 165.458 275.116 166.069 269.986C166.706 269.663 167.023 269.34 167.66 269.017C169.252 268.368 167.962 265.811 166.37 266.46C166.971 259.408 167.572 252.356 168.813 245.62C169.435 242.413 170.058 239.526 170.681 236.639C177.999 232.435 184.999 228.233 192.638 224.348C192.339 228.194 192.041 232.361 191.106 236.532C188.936 248.719 185.807 260.591 183.956 272.776C183.336 276.304 183.034 279.51 182.733 283.036C186.561 282.695 190.07 282.356 193.898 282.016C194.494 274.002 195.09 265.989 196.646 258.291C198.194 249.311 200.064 240.65 201.291 231.351C202.252 231.987 202.894 232.625 203.855 233.26C209.618 236.755 214.744 240.573 220.507 244.067C221.468 244.703 222.429 245.339 223.389 245.974C222.474 253.99 220.601 262.01 218.094 270.674C217.155 274.204 216.535 277.732 215.915 281.259C220.383 281.236 225.169 280.89 229.637 280.867C232.139 271.241 233.683 261.3 234.274 252.325C240.353 255.177 246.428 257.388 252.809 257.034C253.128 257.033 253.447 257.031 254.084 256.707C253.778 259.272 253.473 261.837 253.167 264.402C252.238 269.854 252.267 275.301 251.978 281.07C256.127 281.048 260.277 281.347 264.426 281.325C264.421 280.364 264.416 279.402 264.411 278.441C265 269.146 267.184 259.522 266.814 249.912C262.66 248.972 258.822 247.39 254.984 245.808C254.993 247.41 254.682 249.014 254.69 250.616C248.291 247.446 241.253 244.278 234.534 241.11C234.205 239.189 234.195 237.266 233.865 235.346C230.666 233.76 227.785 232.173 224.583 230.268C224.594 232.19 224.604 234.113 224.612 235.715C222.692 234.763 220.771 233.492 219.17 232.539C214.687 229.679 208.282 225.547 202.529 223.975C202.519 222.053 202.509 220.13 202.18 218.21C201.219 217.574 199.941 217.26 198.98 216.624C196.741 215.675 198.318 212.142 200.555 212.771C200.875 212.769 201.195 213.088 201.515 213.086C200.529 207.645 199.544 202.523 199.516 197.076C199.51 196.115 199.504 194.833 199.497 193.552C206.135 181.341 209.237 164.343 218.759 154.36L219.077 154.038C222.569 150.495 226.706 148.23 232.124 146.92C234.674 146.266 236.903 145.293 239.132 144.32C240.093 144.956 241.364 143.988 241.678 143.025C245.815 140.76 249.631 138.177 254.413 137.19C268.121 134.235 280.887 134.167 294.605 133.134C299.39 132.789 303.851 131.483 308.633 130.497C310.865 130.165 313.099 130.153 315.333 130.141C313.108 131.755 310.881 133.049 308.655 134.662C307.059 134.671 306.104 134.996 305.475 136.922C305.161 137.885 306.122 138.521 307.078 138.195C311.215 135.931 315.029 133.027 318.844 130.123C320.44 130.115 322.354 130.105 324.271 130.415C337.994 130.343 348.836 128.684 362.578 132.136C358.174 144.335 344.795 149.212 333.978 155.677C329.828 155.378 325.679 155.4 321.214 156.064C308.456 157.413 297.907 154.264 285.456 153.368C273.642 152.469 263.778 157.968 254.236 164.106C252.01 165.72 247.228 166.706 245.004 168.641C241.826 171.221 239.93 174.755 238.034 178.29C227.884 190.198 224.13 204.637 223.895 220.659C226.453 221.607 228.692 222.556 231.25 223.504C230.586 218.701 230.242 213.897 230.853 208.767C231.781 202.995 233.028 197.541 234.599 192.726C235.237 192.723 235.555 192.401 236.191 192.077C239.682 188.214 241.889 183.076 245.698 179.211C249.823 174.703 250.149 175.983 254.923 173.395C268.288 165.955 278.485 163.018 293.819 165.821C300.208 167.069 306.277 167.998 312.66 167.965C315.532 167.95 318.403 167.614 321.272 166.958C320.005 168.887 319.059 171.135 318.435 173.702C318.438 174.343 319.078 174.66 319.394 174.017C320.974 171.125 322.876 168.552 325.1 166.618C327.651 166.284 330.204 166.27 332.761 166.898C343.623 169.084 352.285 177.689 361.888 183.086C358.712 185.986 354.576 188.571 351.078 190.833C349.17 192.124 338.675 199.229 332.944 201.822C323.019 195.786 313.088 188.789 302.849 183.717C296.129 180.227 286.234 179.959 279.221 181.598C277.946 181.925 276.673 182.572 275.4 183.22C258.828 187.793 254.446 204.157 253.252 219.864C252.958 224.672 253.623 229.795 254.287 234.597C257.808 236.501 261.326 238.085 264.847 239.989C261.904 226.547 259.599 213.102 264.005 201.223C264.005 201.223 264.005 201.223 264.324 201.221C278.307 189.933 288.17 184.114 304.514 196.845C312.524 202.891 320.842 206.692 329.484 211.453C335.887 215.264 343.244 218.43 350.599 221.275C347.432 225.777 344.264 230.28 340.454 234.145C339.502 235.111 340.787 236.706 341.741 236.06C346.51 232.511 349.993 227.366 353.158 222.222C361.47 225.063 370.097 226.94 378.717 227.535C389.573 228.439 399.129 224.865 409.008 222.249C412.235 228.961 412.914 236.648 413.589 243.693C413.598 245.295 413.924 246.575 413.932 248.177C413.294 248.181 412.654 247.864 411.696 247.869C396.682 245.064 388.681 240.94 373.381 244.545C362.863 247.164 354.268 251.374 344.341 245.018C338.578 241.524 333.771 237.704 328.008 234.21C318.405 228.813 312.276 216.349 299.84 218.337C291.868 219.661 290.292 223.514 289.046 229.288C283.999 240.529 284.083 256.55 283.819 267.125C283.529 272.573 283.556 277.7 283.262 282.508C284.219 282.503 285.498 282.816 286.455 282.811C289.648 283.115 289.67 287.28 286.48 287.617C285.204 287.624 283.929 287.951 282.652 287.958C282.049 294.69 280.489 301.427 277.016 308.494C272.912 317.167 268.809 325.84 264.386 334.514C255.222 351.865 237.737 364.773 228.895 382.763C224.159 392.4 224.552 406.497 237.014 409.315C246.919 411.506 259.019 406.315 268.59 405.624C280.712 404.599 286.794 408.092 297.988 412.519C304.384 415.049 311.089 415.654 316.224 421.074C320.717 425.857 321.71 432.58 324.611 438.012C327.831 443.442 333.601 448.218 339.359 450.751C343.837 452.65 347.982 451.988 352.458 453.566C356.935 455.145 360.466 458.971 364.626 461.192C372.946 465.314 380.603 464.953 389.529 462.984C400.049 460.686 409.593 454.868 419.783 450.649C430.293 446.429 438.867 438.373 448.734 433.195C454.462 429.96 457.959 427.379 461.442 422.234C463.685 423.824 465.929 425.735 468.171 427.325C472.977 430.824 478.1 434.002 483.223 437.179C480.683 439.755 478.463 442.33 476.56 444.583C473.387 448.125 469.9 452.629 466.09 456.494C465.447 455.536 463.85 455.224 462.897 456.19C451.457 465.542 438.067 468.176 425.012 474.012C411.002 480.174 400.807 483.431 385.157 481.271C372.062 479.417 358.645 476.924 345.545 474.109C340.113 472.856 335.326 472.881 330.84 469.38C326.993 466.196 325.688 460.756 322.159 457.25C316.384 451.513 308.696 446.106 300.711 444.867C296.559 444.248 292.736 445.549 288.582 444.61C284.109 443.672 280.58 440.166 276.109 439.549C265.889 438.321 257.295 442.531 246.741 438.422C240.345 435.892 236.169 430.787 230.406 427.293C225.281 423.795 218.89 422.227 214.081 418.087C201.26 407.58 206.939 395.054 213.58 383.484C219.906 372.557 231.361 366.088 237.371 355.803C239.269 352.589 238.612 349.068 240.192 346.176C241.141 344.569 243.37 343.596 244.319 341.989C250.967 331.701 257.617 321.733 261.385 309.858C263.583 303.118 263.551 297.03 263.837 290.62C259.369 290.643 255.222 290.986 250.754 291.009C250.762 292.611 250.451 294.215 250.46 295.817C249.818 295.18 248.857 294.544 247.582 294.871C240.57 296.51 232.91 296.55 224.932 296.592C225.562 294.987 226.19 293.061 226.501 291.457C222.352 291.479 217.884 291.502 213.735 291.524C213.424 293.128 213.114 294.732 212.803 296.335C208.014 296.04 203.227 296.065 198.44 296.09C196.206 296.102 193.655 296.436 191.102 296.449C191.414 295.166 191.406 293.564 191.718 292.281C187.888 292.301 184.06 292.641 180.231 292.661C179.92 294.265 179.609 295.869 179.618 297.471C173.238 298.145 167.176 298.498 160.794 298.531L160.792 298.211C160.79 297.89 160.79 297.89 160.789 297.57C161.101 296.287 161.412 294.683 161.724 293.4C157.258 293.743 152.79 293.767 148.322 293.79C148.01 295.074 147.697 296.357 147.385 297.64C145.472 297.971 144.526 300.219 146.448 301.49C146.448 301.49 146.448 301.49 146.449 301.811C145.507 304.699 144.561 306.947 143.297 309.197C142.023 309.844 141.071 310.811 140.117 311.456C133.758 315.976 127.399 320.495 120.719 324.695C119.764 325.341 118.81 325.987 118.176 326.631C116.262 326.962 114.67 327.611 112.757 327.941C113.39 326.977 114.022 325.692 114.974 324.726C109.866 324.432 104.755 323.498 100.28 322.239C99.0188 325.13 98.0765 328.018 96.8151 330.909C88.8434 332.232 80.2317 333.239 72.8898 332.957C72.2515 332.96 71.6133 332.964 70.9733 332.647C84.0125 323.927 96.4219 316.813 108.188 308.74ZM193.467 321.429C179.432 322.785 165.395 323.82 151.354 324.214C151.035 324.216 150.716 324.217 150.397 324.219C146.248 324.241 142.099 324.263 137.95 324.284C134.44 324.303 130.61 324.323 127.098 324.021C127.415 323.699 128.052 323.375 128.369 323.053C132.503 320.148 136.637 317.242 140.453 314.659C140.135 314.981 139.82 315.623 139.502 315.945C144.608 315.919 149.713 315.571 154.819 315.545C156.086 313.615 157.35 311.366 158.296 309.118C158.924 307.192 159.873 305.585 160.501 303.659C166.572 304.909 172.639 305.518 178.704 305.807C177.762 308.695 176.499 311.265 174.916 313.837C179.064 313.495 183.528 312.83 187.675 312.488C188.623 310.561 189.251 308.635 189.877 306.389C194.985 306.682 200.411 306.654 205.517 306.627C206.793 306.62 208.389 306.612 209.666 306.605C209.034 307.89 208.401 308.855 207.768 309.819C211.596 309.479 215.743 309.136 219.571 308.796C219.886 308.153 220.521 307.509 220.835 306.546C232.005 306.488 244.443 304.82 250.472 298.06C249.85 301.267 248.909 304.476 247.65 307.687C247.969 307.685 248.607 307.682 248.926 307.68C252.118 307.664 253.1 312.465 249.595 313.444C248.001 313.773 246.089 314.424 244.495 314.753C243.55 317.001 242.283 318.93 241.019 321.179C240.38 321.183 239.74 320.866 239.104 321.189C230.815 322.835 221.234 321.604 212.291 320.369C212.289 320.049 212.609 320.047 212.607 319.727C206.227 320.401 199.846 320.755 193.467 321.429ZM162.58 395.608C161.018 402.024 160.417 409.077 162.683 415.153C163.006 415.792 163.328 416.431 163.651 417.07C163.651 417.07 163.331 417.072 163.333 417.392C158.254 422.545 153.492 427.377 148.732 432.528C146.777 424.849 144.821 417.169 146.378 409.791C148.251 401.771 153.322 395.015 154.553 386.358C155.173 382.83 155.794 379.623 156.417 376.736C157.365 374.808 158.312 372.881 158.938 370.634C158.937 370.314 158.935 369.994 158.614 369.675C160.19 365.822 161.765 361.968 164.295 357.469C168.087 350.4 170.923 343.336 173.756 335.952C178.859 335.284 183.643 334.618 188.749 334.591C191.302 334.578 193.857 334.885 196.41 334.871C195.782 336.797 195.154 338.723 194.206 340.65C190.43 350.924 183.745 354.163 177.408 362.847C171.39 371.53 165.4 385.66 162.58 395.608ZM142.784 454.668C143.757 457.547 144.73 460.425 146.337 462.66C141.587 469.734 136.835 476.488 131.763 482.923C128.884 481.656 126.008 481.03 123.121 478.162C119.593 474.976 118.621 472.098 117.964 468.577C118.599 467.932 119.551 466.966 120.186 466.322C127.17 459.236 133.835 452.152 140.5 445.068C141.155 448.268 141.81 451.469 142.784 454.668ZM147.943 464.574C149.547 466.168 151.149 467.441 153.709 468.709C158.508 470.927 163.3 471.863 167.783 474.723C161.753 481.163 155.082 486.966 148.412 493.089C144.246 489.906 140.082 487.044 136.241 484.822C135.601 484.505 134.961 484.188 134.321 483.871C139.076 477.758 143.51 471.326 147.943 464.574ZM118.894 463.445C118.26 464.089 117.625 464.733 116.99 465.377C116.664 464.098 116.655 462.495 116.33 461.216C114.697 454.175 112.103 446.499 110.786 438.816C119.359 430.44 127.613 422.065 135.225 413.054C135.234 414.656 135.244 416.578 135.254 418.501C135.933 426.187 137.57 434.189 139.527 442.189C132.864 449.594 125.88 456.68 118.894 463.445ZM110.38 422.156C110.689 420.232 111.317 418.306 111.947 416.701C119.571 409.932 127.514 403.162 135.138 396.393C137.36 394.138 140.222 392.201 142.765 390.265C142.135 391.87 141.825 393.474 141.193 394.759C138.988 400.217 136.774 404.074 135.838 408.244C127.591 417.9 119.022 426.917 110.131 435.615C109.469 431.132 109.446 426.647 110.38 422.156ZM95.4138 428.643C87.7949 436.373 79.8552 443.784 71.9154 451.196C71.2485 445.752 70.9025 440.627 72.1521 435.494C74.6479 424.587 81.3027 415.58 82.8378 404.037C82.8344 403.396 83.1485 402.433 83.1451 401.793C92.6755 393.412 101.885 384.712 111.096 376.333C108.273 385.64 108.006 395.574 103.906 404.888C100.122 413.559 97.2765 418.7 97.0011 427.033C96.6853 427.675 96.0487 427.999 95.4138 428.643ZM107.078 340.467C114.736 340.107 122.073 339.427 129.408 338.428C128.46 340.355 127.832 342.281 126.885 344.208C115.766 353.879 104.325 363.231 92.5627 371.944C93.5083 369.697 94.7714 367.127 96.0362 364.877C100.143 356.845 103.611 348.816 107.078 340.467ZM90.6748 377.081C102.122 369.01 112.925 359.982 123.41 350.955C120.568 356.738 117.405 362.201 114.563 367.984C114.246 368.306 114.249 368.947 113.931 369.269C104.085 378.292 94.2375 386.995 84.0705 395.7C85.3134 389.285 87.1979 383.508 89.7208 377.727C90.3573 377.403 90.3573 377.403 90.6748 377.081ZM119.811 394.871C121.655 381.404 125.12 372.735 131.121 360.848C132.384 358.278 133.649 356.028 134.593 353.46C136.18 351.849 137.768 350.239 139.355 348.629C140.625 347.34 139.021 345.747 137.747 346.394C139.007 343.183 140.268 340.293 141.528 337.082C148.546 336.404 155.246 336.049 162.269 336.332C162.588 336.331 162.907 336.329 163.226 336.327C159.445 345.639 154.704 354.315 149.962 362.992C146.17 370.061 145.57 377.433 144.013 384.811C138.61 389.005 133.53 394.158 128.448 398.671C123.682 402.861 118.917 407.052 113.833 411.244C116.359 406.104 118.885 400.964 119.811 394.871ZM88.9276 348.253C80.0321 355.989 70.8141 363.087 61.5978 370.505C60.3263 371.473 59.0548 372.441 57.7833 373.409C58.0991 372.766 58.4132 371.803 58.729 371.161C63.1396 360.244 65.9513 348.694 67.8055 337.149C70.6845 338.416 73.8826 339.681 77.3948 339.983C82.5044 340.597 87.9314 340.888 93.3568 340.86C92.4112 343.108 91.4638 345.035 90.5165 346.963C89.8799 347.286 89.5625 347.609 88.9276 348.253ZM42.8983 395.275C47.0185 389.807 50.8229 384.98 54.3065 379.835C56.2146 378.544 58.1227 377.252 59.3925 375.964C68.9313 369.185 78.1476 361.767 86.7256 354.352C86.7256 354.352 86.7256 354.352 87.043 354.03C83.8853 360.455 80.4068 366.561 76.9299 372.988C74.4004 377.487 73.1474 381.979 71.8961 386.792C60.1301 394.864 48.6849 403.255 36.9189 411.328C37.8443 405.235 39.0973 400.742 42.8983 395.275ZM62.8162 420.163C58.7163 429.477 55.8777 435.9 57.2165 447.748C57.5626 452.873 58.547 457.995 59.5313 463.116C56.6726 465.694 54.1346 468.592 50.955 470.851C48.0962 473.43 44.9133 475.048 41.4095 476.348C40.7358 469.623 40.0622 462.898 39.7111 456.812C39.3667 452.007 38.7031 447.205 38.3604 442.721C46.2985 434.989 54.5574 427.576 62.8162 420.163ZM41.7438 479.23C44.2901 477.935 47.1573 476.959 49.3829 475.345C53.1991 472.762 56.3736 469.541 59.8656 465.998C60.8483 470.799 61.831 475.6 63.1311 480.079C61.5438 481.69 60.274 482.978 58.6867 484.588C53.9249 489.42 49.4839 494.57 45.0429 499.72C43.4119 492.999 42.4191 486.276 41.7438 479.23ZM72.2497 454.078C80.8261 446.343 88.7624 438.29 97.0179 430.237C97.0213 430.878 97.0264 431.839 97.0297 432.48C97.3724 436.964 98.0343 441.446 99.0153 445.927C95.2041 449.471 91.393 453.016 87.5835 456.881C83.4533 460.427 79.6438 464.292 75.5152 468.159C74.5342 463.678 73.2324 458.879 72.2497 454.078ZM78.7723 480.638C78.1171 477.437 77.1446 474.559 76.4878 471.037C80.6164 467.171 84.4275 463.626 88.5561 459.759C92.3672 456.215 96.1784 452.67 99.6704 449.127C101.312 457.77 103.591 466.409 105.867 474.408C105.87 475.048 106.191 475.367 106.193 475.687C103.018 478.908 99.523 481.81 96.3484 485.031C92.5373 488.576 88.7262 492.121 84.5942 495.346C84.2751 495.348 83.9593 495.991 83.3227 496.314C80.1094 492.166 80.4033 487.358 78.7723 480.638ZM118.463 502.858C121.32 499.96 123.858 497.063 126.396 494.165C129.914 495.429 133.112 496.694 136.636 499.238C137.596 499.874 138.878 500.829 139.839 501.464C139.202 501.788 138.886 502.431 138.25 502.754C131.897 508.555 125.864 514.354 119.831 520.154C116.626 517.607 113.421 515.061 109.899 512.836C112.433 509.298 115.289 506.079 118.463 502.858ZM172.132 512.83L171.812 512.511C177.516 504.791 182.58 496.754 187.963 488.715C191.166 490.941 194.05 493.169 197.569 494.753C192.183 502.151 186.475 509.23 181.089 516.628C177.892 515.683 175.013 514.417 172.132 512.83ZM169.571 511.241C166.047 508.696 163.475 505.185 159.95 502.32C157.066 500.092 153.859 497.225 150.654 494.679C157.324 488.556 163.996 482.753 170.026 476.313C173.87 479.177 178.033 481.718 181.878 484.582C183.159 485.536 184.441 486.491 185.722 487.445C180.339 495.484 174.954 503.202 169.571 511.241ZM168.361 463.185C164.2 460.964 160.69 460.982 157.161 457.476C152.35 453.016 152.649 449.169 151.341 443.088C150.689 440.528 150.037 437.968 149.385 435.409C154.465 430.255 159.542 424.781 164.621 419.628C169.785 430.495 179.092 440.379 186.164 449.954C184.58 452.206 182.998 454.777 181.415 457.349C179.519 460.884 176.983 464.101 174.445 466.998C172.523 465.726 170.602 464.455 168.361 463.185ZM485.347 537.778C485.02 536.178 482.47 536.832 482.797 538.432C483.125 540.033 483.452 541.633 483.78 543.234C481.869 543.884 479.957 544.535 477.728 545.508C472.635 548.098 467.864 551.007 463.092 553.916C461.456 546.235 459.819 538.553 457.545 530.875C461.044 528.614 463.901 525.715 468.043 524.412C474.412 521.815 479.208 523.392 485.592 523.679C494.212 524.274 499.938 520.719 506.936 516.197C509.48 514.581 512.025 512.966 514.889 511.349C518.124 519.663 521.04 527.978 523.639 536.616C523.321 536.938 522.685 537.262 522.367 537.584C511.231 544.05 498.445 540.273 486.331 542.9C486.004 541.299 485.675 539.379 485.347 537.778ZM415.638 572.749C414.636 564.424 413.637 556.419 412.318 548.415C419.012 546.778 425.699 543.859 432.392 542.222C433.029 541.898 433.667 541.895 434.303 541.571C436.576 548.929 437.258 557.256 437.3 565.266C430.289 567.225 423.604 570.465 416.276 572.746C416.276 572.746 415.957 572.748 415.638 572.749ZM345.46 518.648C353.44 518.926 361.103 519.527 368.435 517.886C372.595 520.107 374.831 520.416 378.976 519.753C379.962 525.195 380.312 530.961 380.661 536.726C374.917 536.756 369.179 538.068 363.441 539.38C363.122 539.382 362.801 539.063 362.482 539.065C360.886 539.073 358.972 539.083 357.376 539.092C357.354 534.926 357.33 530.441 357.309 526.275C357.3 524.673 355.066 524.685 355.075 526.287C355.096 530.452 355.12 534.938 355.142 539.103C351.951 539.12 348.757 538.816 345.559 537.552C341.721 535.97 337.24 533.43 333.398 531.207C331.479 530.256 330.516 529.3 327.32 528.355C327.301 524.831 327.281 520.986 327.262 517.462C333.973 519.028 338.758 518.683 345.46 518.648ZM335.061 544.015C342.42 547.501 348.166 547.791 354.863 546.795C354.909 555.446 354.956 564.417 355.001 573.068C350.852 573.09 347.021 572.79 342.864 571.209C338.386 569.31 333.265 566.454 329.102 563.912C328.783 563.914 327.824 563.598 327.824 563.598C327.784 555.909 327.743 548.219 327.703 540.529C330.901 541.794 332.822 543.066 335.061 544.015ZM357.734 546.459C359.647 546.129 361.56 545.798 363.473 545.468C364.111 545.464 364.746 544.82 365.064 544.498C370.81 544.788 379.108 544.745 380.703 544.736C381.022 544.735 381.022 544.735 381.342 544.733C381.353 546.976 381.684 549.217 381.696 551.46C382.049 557.866 382.721 564.271 383.391 570.356C376.691 570.711 370.315 572.026 363.941 573.662C363.621 573.664 363.301 573.345 362.981 573.347C361.386 573.355 359.79 573.363 358.194 573.372C357.828 564.402 357.781 555.431 357.734 546.459ZM383.907 546.963C383.903 546.322 383.9 545.681 383.898 545.361C390.926 546.605 397.327 550.096 404.666 549.737C406.58 549.727 408.175 549.398 410.088 549.068C411.406 557.071 412.407 565.397 413.407 573.402C405.435 574.726 400.952 571.865 392.65 570.948C390.414 570.639 388.18 570.651 385.946 570.663C384.946 562.657 384.268 554.971 383.907 546.963ZM436.534 540.918C443.226 538.961 449.913 536.042 455.956 532.165C457.911 539.845 459.867 547.525 461.184 555.208C454.502 559.088 447.818 562.647 439.531 564.613C439.17 556.605 438.807 548.276 436.534 540.918ZM499.236 508.547C487.463 515.338 473.707 509.002 461.294 515.475C451.108 520.656 443.164 527.106 432.331 530.687C432.009 530.048 431.367 529.411 431.045 528.772C430.081 527.495 428.172 528.787 429.137 530.063C429.459 530.702 429.78 531.021 430.102 531.66C429.466 531.984 428.508 531.989 427.872 532.313C421.498 533.948 415.451 537.184 409.076 538.82C400.473 541.428 396.309 538.567 388.324 537.327C386.727 537.015 385.131 537.023 383.535 537.032C383.186 531.266 382.517 525.502 381.849 519.738C383.443 519.409 385.037 519.08 387.267 518.428C396.828 515.814 409.283 517.351 419.493 516.977C425.875 516.623 431.933 515.63 437.982 512.714C446.576 508.504 450.685 500.792 460.246 498.179C465.664 496.868 471.729 497.157 476.824 494.887C483.83 491.967 495.287 485.819 501.006 480.982C508.314 474.856 511.776 465.546 515.241 456.876C521.647 461.328 529.011 465.776 536.047 468.622C528.795 485.322 515.462 498.85 499.236 508.547ZM321.172 512.367C323.095 513.959 324.698 515.232 326.297 515.865C326.298 516.185 326.298 516.185 326.3 516.505C326.318 520.03 326.335 523.234 326.354 526.758C323.154 525.173 319.638 524.23 316.123 523.288C316.096 518.161 316.067 512.714 316.04 507.588C317.644 509.181 319.568 510.773 321.172 512.367ZM316.183 534.822C320.018 535.763 323.218 537.349 326.418 538.934C326.458 546.624 326.499 554.313 326.539 562.003C322.698 559.78 318.859 558.199 315.023 556.937C315.303 549.566 315.584 542.195 315.545 534.826C315.864 534.824 315.864 534.824 316.183 534.822ZM288.109 536.892C287.817 542.02 287.525 547.149 286.914 552.278C285.316 551.966 283.401 551.976 281.804 551.664C282.086 544.614 282.049 537.565 280.737 530.843C282.973 531.152 285.528 531.459 288.082 531.766C288.091 533.368 288.101 535.29 288.109 536.892ZM284.112 565.751C284.75 565.747 285.07 565.746 285.709 566.063C285.416 570.87 285.123 575.999 285.149 580.805C285.159 582.727 285.169 584.65 285.179 586.572C283.901 586.258 282.305 586.267 281.027 585.953C281.017 584.031 281.005 581.788 280.995 579.865C280.65 575.061 280.944 570.253 281.238 565.445C282.197 565.761 283.155 565.756 284.112 565.751ZM293.163 587.491C291.246 587.181 289.331 587.191 287.415 586.881C287.388 581.754 287.362 576.948 287.655 571.82C287.645 569.897 287.954 567.973 287.943 566.051C294.968 566.655 301.67 566.62 308.699 568.185C309.977 568.498 311.256 568.812 312.536 569.446C312.247 575.215 311.958 580.984 311.352 587.075C311.36 588.677 311.049 590.281 311.058 591.883C305.302 589.67 299.869 588.417 293.163 587.491ZM314.456 570.397C318.614 572.298 322.456 574.521 326.616 576.742C326.657 584.432 326.697 592.121 326.738 599.811C326.098 599.494 325.458 599.177 324.818 598.86C320.976 596.637 317.137 594.735 313.618 593.151C313.896 585.46 314.177 578.089 314.456 570.397ZM327.9 578.017C331.093 578.32 330.137 578.646 330.779 579.283C339.738 583.722 346.759 583.685 354.731 582.362C354.778 591.333 354.825 600.304 354.874 609.596C349.768 609.623 344.341 609.331 339.225 607.435C335.386 605.854 334.098 603.617 327.705 601.729C327.982 593.717 327.942 586.027 327.9 578.017ZM358.24 582.023C360.153 581.692 362.066 581.362 363.979 581.031C364.937 581.026 365.572 580.382 365.889 580.06C372.593 580.345 382.486 580.293 384.082 580.285L384.401 580.283C384.738 583.806 385.076 587.329 385.733 590.85C386.398 595.973 386.746 601.418 387.092 606.543C379.434 606.904 371.783 608.546 364.452 610.187C364.132 610.188 363.812 609.87 363.173 609.873C361.578 609.881 359.982 609.89 358.386 609.898C358.337 600.606 358.289 591.315 358.24 582.023ZM387.622 586.034C387.293 584.113 387.283 582.191 386.956 580.59C395.262 582.149 403.262 586.272 411.877 585.906C412.834 585.901 413.79 585.576 414.428 585.572C414.769 589.736 415.112 594.22 415.453 598.384C415.793 602.227 415.813 606.072 415.835 610.237C409.771 610.269 404.653 608.053 397.308 607.13C394.434 606.825 391.879 606.518 389.007 606.533C388.97 599.484 388.296 592.759 387.622 586.034ZM468.69 586.889C467.701 580.807 467.031 574.722 466.041 568.64C468.269 567.346 470.497 566.373 472.406 565.082C477.177 562.173 480.987 558.308 486.402 556.357L486.721 556.355C488.359 564.357 489.997 572.359 491.633 580.04C483.996 584.246 476.998 588.768 469.678 592.652C469.349 590.731 469.02 588.81 468.69 586.889ZM530.08 547.796C530.717 547.473 531.354 547.149 531.99 546.825C537.716 543.271 544.715 539.068 551.073 534.229C553.673 543.187 555.954 552.146 558.554 561.104C555.057 563.686 551.24 565.949 547.422 568.212C544.24 570.151 540.735 571.131 537.229 572.11C534.634 564.114 532.358 556.115 530.08 547.796ZM596.585 510.279C594.616 500.036 592.648 489.793 590.36 479.551C588.73 473.152 587.101 466.752 585.47 460.032C585.468 459.711 585.468 459.711 585.786 459.389C588.938 452.003 592.412 444.936 596.204 437.867C599.777 449.703 603.033 461.862 606.606 473.699C606.93 474.658 607.256 475.938 607.58 476.898C605.689 481.393 604.435 485.886 603.505 491.017C602.271 499.034 600.075 506.415 597.238 513.159C596.914 512.199 596.59 511.24 596.585 510.279ZM609.473 472.722C608.823 470.483 607.852 467.925 607.202 465.685C603.955 455.129 601.027 444.57 597.782 434.334C598.413 433.049 599.043 431.443 599.675 430.159C603.146 422.771 608.842 413.449 608.798 405.118C608.788 403.196 607.187 402.243 605.592 402.251C606.85 398.72 608.425 394.867 609.683 391.336C611.308 396.774 612.932 402.213 613.92 407.975C615.568 417.899 615.301 427.834 615.993 438.083C616.344 444.169 617.333 450.252 618.642 456.333C615.16 461.798 611.997 467.262 609.473 472.722ZM63.4207 535.189C58.5999 528.806 52.506 523.071 49.5934 515.396C47.9775 511.56 46.9981 507.399 45.6997 503.241C50.1424 498.411 54.2643 493.263 58.7069 488.433C60.2942 486.823 61.8815 485.212 63.7862 483.28C64.7655 487.44 66.0656 491.919 67.0433 495.759C68.0209 499.599 69.6351 503.115 71.5668 506.309C71.5685 506.629 71.5701 506.95 71.5718 507.27C71.5752 507.911 72.2168 508.548 72.8534 508.225C75.1009 510.776 77.9866 513.324 81.5055 514.908C86.9444 517.443 92.6973 519.015 97.8169 521.551C92.1095 528.63 86.402 535.709 80.3738 542.47C81.6301 538.618 83.5248 534.763 85.1171 534.114C85.7554 534.111 85.4312 533.151 85.112 533.153L82.5606 533.487C82.2415 533.488 81.924 533.81 81.9257 534.131C80.3569 539.266 78.1449 543.443 75.617 548.262C74.6663 549.549 76.5896 551.141 77.8594 549.853C86.1149 541.799 93.7254 532.467 101.018 523.457C101.339 523.775 101.658 523.774 101.979 524.092C104.542 526.002 107.104 527.59 109.986 529.497C108.716 530.786 107.445 531.754 106.175 533.042C98.2388 541.094 88.7051 548.834 83.0111 558.477C81.7295 557.522 80.767 556.566 79.4854 555.611C73.0723 549.878 68.8831 542.21 63.4207 535.189ZM85.2551 560.387C87.7948 557.811 90.3361 555.554 91.5975 552.664C97.9415 545.261 104.926 538.175 111.91 531.089C114.473 532.998 117.034 534.587 119.598 536.496C126.325 541.267 132.412 545.721 139.134 549.53C137.548 551.461 135.963 553.392 134.377 555.323C130.889 559.507 127.077 563.051 123.589 567.235C121.686 569.488 120.102 571.739 118.518 573.99C117.88 573.994 117.559 573.675 116.921 573.678C118.499 570.466 121.357 567.567 123.585 566.594C124.222 566.27 123.579 565.313 123.261 565.635C120.394 566.611 117.22 569.832 115.004 573.368C104.776 570.538 94.5472 567.388 85.2551 560.387ZM177.987 594.505C166.468 588.798 155.906 583.086 143.759 579.305C146.616 576.406 149.15 572.868 151.369 569.973C153.904 566.435 157.392 562.251 158.647 558.079C163.444 559.976 168.243 562.194 172.723 564.413C169.872 568.594 167.024 573.095 164.815 577.912C164.183 579.197 165.467 580.472 166.74 579.825C170.242 578.204 172.783 575.948 175.318 572.41C175.634 571.768 174.992 571.13 174.357 571.774C172.771 573.705 171.183 574.995 168.954 575.968C170.85 572.434 172.748 569.22 174.963 565.683C178.163 567.269 181.046 569.176 184.249 571.402C187.106 568.503 190.282 565.603 193.139 562.704C188.979 560.483 184.818 558.262 180.659 556.361C182.559 553.468 184.138 550.255 186.037 547.361C188.884 542.54 191.731 537.719 194.58 533.218C200.019 535.753 205.461 538.929 210.908 543.065C211.548 543.382 211.869 543.701 212.511 544.339C212.828 544.017 213.463 543.372 213.78 543.05C212.22 549.787 207.144 555.581 203.345 561.369C202.713 562.654 202.082 563.939 201.45 565.224C197.32 568.77 193.509 572.315 189.378 575.861C189.699 576.18 190.018 576.178 190.339 576.497C186.535 581.323 183.065 589.031 177.987 594.505ZM268.2 513.606C266.606 513.935 265.014 514.584 263.421 515.234C261.824 514.922 260.544 514.288 258.945 513.655C255.767 516.235 252.27 518.817 249.092 521.397C249.732 521.714 250.691 522.029 251.331 522.346C245.289 526.544 238.928 530.742 232.887 534.94C230.026 537.197 227.487 539.774 224.628 542.352C219.229 547.507 213.513 552.985 208.115 558.14C212.234 552.35 216.673 546.88 217.272 539.507C217.271 539.187 217.271 539.187 217.269 538.867C218.539 537.578 220.128 536.288 221.398 535C214.358 531.512 207.636 527.703 200.596 524.215C202.814 520.999 205.032 518.104 207.569 514.886C208.837 513.278 206.593 511.367 205.644 512.974C203.107 516.191 200.573 519.729 198.037 522.947C195.158 521.68 192.279 520.414 189.401 519.468C187.483 518.837 185.884 518.204 183.966 517.574C189.352 510.176 194.741 503.098 200.129 496.021C201.728 496.653 203.329 497.606 204.926 497.918C215.478 501.708 223.796 505.509 233.085 511.869C235.648 513.778 238.209 515.366 240.769 516.634C243.628 514.056 246.488 511.798 249.349 509.54C237.514 504.476 226.303 496.845 214.153 492.423C210.956 491.478 208.077 490.212 204.881 489.267C205.831 487.981 206.782 486.694 207.733 485.407C208.682 483.8 206.441 482.53 205.492 484.137C204.541 485.424 203.591 486.711 202.642 488.318C201.683 488.002 200.722 487.367 199.763 487.051C197.201 485.463 194.957 483.552 193.032 481.639C195.884 477.779 198.416 473.601 201.268 469.741C202.218 468.454 199.978 467.184 199.027 468.471C196.175 472.331 193.64 475.869 191.107 479.727C190.466 479.09 189.824 478.452 189.184 478.135C185.658 475.27 181.491 471.767 177.325 468.585C179.548 466.33 181.449 463.757 183.031 461.185C184.929 457.971 186.51 455.079 188.409 452.186C192.909 458.25 194.51 459.203 202.183 461.726C215.291 466.143 227.457 473.448 240.883 477.543C243.439 478.17 245.994 478.477 248.23 478.786C257.812 480.338 255.904 481.63 262.297 483.518C272.525 486.348 284.014 486.288 293.929 490.401C301.926 493.884 308.341 499.938 314.754 505.672C314.435 505.674 314.119 506.316 314.12 506.636C314.147 511.763 314.176 517.21 314.203 522.336C313.244 522.021 312.286 522.026 311.329 522.031C304.622 521.105 297.598 520.501 290.892 519.896C290.872 516.051 290.852 512.206 291.789 508.356C292.72 503.224 294.293 499.051 294.267 493.924C294.26 492.642 292.345 492.653 292.352 493.934C292.706 500.661 289.866 506.764 289.263 513.496C289.273 515.418 288.964 517.342 288.976 519.585C288.657 519.587 288.018 519.59 287.699 519.592C287.38 519.594 286.742 519.597 286.423 519.599C286.74 519.277 287.377 518.953 288.012 518.309C291.825 515.084 287.012 510.303 283.191 511.926C278.733 513.872 272.342 512.303 268.2 513.606ZM275.478 623.15C276.411 618.66 277.664 614.167 278.281 609.999C278.904 607.112 279.208 604.226 279.831 601.339C281.746 601.329 283.662 601.64 285.577 601.63C285.611 608.038 285.645 614.446 285.359 620.856C285.364 621.817 285.371 623.098 285.057 624.061C284.099 624.066 283.14 623.751 282.183 623.756C279.949 623.768 277.713 623.459 275.478 623.15ZM316.363 629.664C315.405 629.669 314.127 629.356 313.168 629.04C313.133 622.312 313.416 615.581 313.383 609.173C317.862 611.393 322.346 614.253 326.825 616.472C326.849 620.958 326.872 625.444 326.898 630.25C323.387 630.268 319.877 630.287 316.363 629.664ZM329.449 629.916C329.427 625.751 329.405 621.585 329.383 617.42C338.979 621.535 346.001 621.498 355.247 619.848C355.266 623.372 355.282 626.576 355.301 630.101C351.468 629.48 347.317 629.181 342.85 629.205C338.383 629.549 333.917 629.892 329.449 629.916ZM358.496 630.725C358.476 626.88 358.457 623.355 358.437 619.51C360.35 619.18 362.263 618.849 364.495 618.517C365.451 618.192 366.088 617.868 366.723 617.224C374.384 617.504 385.873 617.444 387.787 617.434C388.149 625.442 388.829 633.449 389.189 641.137C388.549 640.82 387.59 640.505 386.95 640.187C377.354 636.073 368.08 632.597 358.496 630.725ZM391.748 642.405C391.083 637.282 390.416 631.839 390.07 626.714C390.055 623.83 389.721 620.948 389.706 618.064C398.648 619.299 406.969 623.741 416.228 624.333C416.265 631.382 416.3 638.111 416.976 645.156C408.68 645.52 400.06 644.925 391.748 642.405ZM418.249 644.509C418.852 637.777 419.134 630.726 419.098 623.998C419.418 623.996 419.418 623.996 419.737 623.994C427.075 623.635 434.404 621.354 441.73 618.752C441.737 620.034 442.063 621.314 442.07 622.595C442.737 628.039 442.446 633.488 442.475 638.934C434.191 641.541 426.222 643.506 418.249 644.509ZM488.36 625.236C483.576 625.902 478.477 627.21 473.696 628.517C473.681 625.633 473.345 622.431 473.011 619.549C472.673 616.026 472.336 612.503 471.998 608.981C478.048 606.386 484.097 603.47 489.505 600.237C491.413 598.946 493.321 597.654 494.91 596.364C495.234 597.324 495.239 598.285 495.565 599.565C497.203 607.567 498.843 615.889 500.48 623.891C496.651 623.911 492.505 624.573 488.36 625.236ZM503.351 623.555C501.712 615.233 500.072 606.911 498.113 598.59C497.788 597.31 497.462 596.03 497.134 594.43C499.679 592.814 502.222 590.879 505.089 589.902C513.37 586.655 520.082 588.542 528.7 588.817C531.893 589.121 534.764 588.785 537.314 588.131C538.619 593.571 539.924 599.011 541.548 604.45C542.852 609.57 544.159 615.33 545.781 620.448C544.824 620.453 543.868 620.779 543.23 620.782C530.154 622.453 516.75 622.523 503.351 623.555ZM549.611 620.428C546.681 609.549 543.752 598.671 540.822 587.792C546.878 586.158 551.967 582.927 558.012 579.371C559.284 578.403 560.876 577.754 562.147 576.786C565.405 589.265 568.033 603.67 576.702 613.557C568.749 618.405 559.18 619.417 549.611 620.428ZM580.834 610.331C580.517 610.653 579.88 610.977 579.564 611.62C571.529 600.768 568.272 588.289 564.692 575.17C573.919 569.675 583.775 562.574 591.071 554.205C594.004 565.724 595.664 577.891 601.781 588.112C595.121 596.158 588.141 603.885 580.834 610.331ZM682.513 403.449C670.582 441 657.698 479.198 642.571 515.805C632.801 539.246 619.848 564.307 603.365 585.861C603.365 585.861 603.365 585.861 603.363 585.541C603.362 585.22 603.043 585.222 602.722 584.903C598.197 574.033 595.904 562.831 592.971 551.311C595.823 547.451 598.035 543.274 599.288 538.781C599.923 538.137 600.239 537.495 600.874 536.851C603.79 545.166 607.025 553.48 607.71 562.448C607.719 564.05 609.948 563.077 609.948 563.077C609.897 553.465 606.991 547.072 604.08 539.718C603.433 538.119 603.106 536.519 602.457 534.599C606.257 528.812 609.085 520.466 610.973 515.33C613.179 509.871 614.106 504.099 615.033 498.326C616.969 502.482 619.224 506.315 623.384 508.536C624.024 508.853 625.299 508.526 625.294 507.565C626.221 501.792 625.554 496.349 621.701 491.883C621.38 491.564 620.744 491.888 621.066 492.527C623.958 496.357 624.938 500.517 623.685 505.01C619.837 501.505 617.898 497.03 616.277 492.232C617.209 487.421 618.142 482.61 620.352 478.112C620.982 476.507 621.612 474.901 622.562 473.615C623.223 477.777 623.883 481.939 624.543 486.101C624.546 486.741 625.504 486.736 625.5 486.096C625.791 480.647 625.124 475.203 624.457 469.76C628.56 461.087 632.665 452.735 636.77 444.382C638.665 440.527 640.877 436.35 642.77 432.175C642.784 434.738 643.116 437.3 643.45 440.182C644.122 446.587 645.434 453.308 645.47 460.037C645.51 467.727 643.315 475.108 643.674 482.796C643.678 483.437 644.635 483.432 644.632 482.791C645.549 475.096 647.744 467.715 648.023 460.024C648.303 452.652 646.667 444.971 645.99 437.605C645.652 434.082 645.315 430.56 645.296 427.035C646.553 423.183 647.49 419.334 647.471 415.809C647.461 413.887 646.18 412.932 644.582 412.62C644.579 411.979 644.574 411.018 644.251 410.379C650.857 392.08 660.339 374.408 661.828 354.214C663.016 337.226 667.72 321.5 666.674 304.524C665.625 287.227 650.57 276.732 650.16 259.432C649.797 251.103 653.588 243.714 654.184 235.7C654.796 230.57 654.767 225.123 654.74 219.997C661.449 221.243 668.475 222.168 674.549 224.058C677.745 225.003 680.941 225.947 684.138 226.891C684.882 247.074 685.308 267.258 689.883 287.74C698.704 326.464 694.759 365.255 682.513 403.449Z" fill="#DCDAD1" fill-opacity="0.39"/>
</svg>
