<svg width="797" height="745" viewBox="0 0 797 745" fill="none" xmlns="http://www.w3.org/2000/svg">
<path d="M721.703 499.458C713.548 490.39 708.012 479.369 701.166 469.325C699.697 467.14 698.229 464.955 696.546 463.009C699.752 463.74 702.913 463.568 706.243 462.255C707.789 461.492 708.647 460.539 709.267 459.373C716.584 460.787 723.662 461.987 731.407 462.924C739.152 463.862 749.529 467.6 757.283 464.234C758.684 465.064 760.061 465.442 761.461 466.271C768.614 455.465 774.604 444.044 778.742 431.817C785.868 411.502 794.7 393.584 796.316 371.757C798.047 352.189 792.114 337.792 783.763 320.357C773.142 298.29 753.785 282.585 739.021 263.687C725.467 246.309 716.596 227.543 699.995 212.595C690.034 203.626 679 195.847 669.276 187.092C661.213 179.831 656.196 170.14 648.155 163.331C644.835 160.341 641.345 158.493 638.454 155.027C634.354 150.042 632.68 143.792 629.675 138.068C624.964 129.946 618.346 124.418 611.253 118.463C595.171 104.845 583.874 87.344 566.314 75.8444C557.416 69.9879 548.462 67.5311 539.158 62.6025C534.505 60.1381 529.684 58.8152 524.886 57.944C523.937 57.0898 522.988 56.2356 522.04 55.3814C506.984 39.6696 487.81 27.5785 469.606 16.7934C439.513 -0.81784 397.029 -3.71523 363.763 5.56717C345.454 10.6392 330.433 22.5524 312.881 29.1684C292.687 37.2868 275.226 45.7094 256.073 56.4887C238.894 66.0282 222.405 75.7567 203.712 82.2083C186.137 88.3727 169.479 99.2426 154.672 110.918C139.413 122.617 123.795 136.148 105.622 143.93C98.7481 146.795 91.0942 147.664 84.7173 151.408C75.9137 156.416 69.7645 164.676 64.0668 172.912C54.364 187.026 46.2985 202.184 36.3813 216.537C24.986 233.009 12.7787 251.336 5.56142 269.844C-0.652219 285.807 0.992937 304.966 0.93238 321.726C0.917369 339.39 7.39313 355.569 16.5328 370.697C27.8524 388.65 41.9366 403.056 49.306 423.488C50.1086 425.936 50.8884 427.931 51.9054 430.14C52.1654 430.806 52.2109 431.709 52.6853 432.136C52.9224 432.35 52.9224 432.35 53.1596 432.563C53.9394 434.559 54.9564 436.768 55.9506 438.525C57.0682 438.238 57.9713 438.189 58.8517 437.688C64.4527 441.007 71.5089 441.755 78.2824 441.387C93.1841 440.576 107.904 436.152 122.805 435.342C138.61 434.482 153.187 440.709 168.823 440.991C169.726 440.942 170.415 441.131 171.081 440.868C172.459 441.246 174.051 441.386 175.642 441.526C178.137 441.616 181.016 440.327 183.748 440.632C183.985 440.845 184.222 441.059 184.008 441.297C182.293 443.202 180.363 445.345 178.411 447.036C168.886 455.706 156.876 459.983 147.351 468.653C137.612 477.562 128.042 485.329 117.806 493.358C110.189 499.434 104.354 504.96 99.5826 513.598C98.3417 515.93 98.0951 520.019 100.015 522.179C100.49 522.606 100.75 523.272 101.224 523.699C103.144 525.859 105.233 526.877 107.514 527.206C118.674 541.998 127.645 558.267 137.925 573.559C132.587 579.964 129.316 586.935 133.845 591.444C134.32 591.871 134.963 591.157 134.489 590.73C132.003 586.336 135.342 580.72 139.416 576.196C145.267 584.482 150.859 592.104 153.64 602.369C156.139 611.518 156.335 619.886 160.617 628.484C170.176 647.439 186.258 661.057 204.653 671.152C220.033 679.827 237.082 685.693 252.654 693.677C271.24 703.083 287.131 717.391 304.882 728.2C318.196 736.308 333.293 743.865 349.381 744.122C367.275 744.281 384.07 736.121 400.527 730.244C441.028 716.266 480.329 696.465 517.541 675.645C554.539 655.064 593.503 637.546 627.021 610.813C659.682 585.033 675.571 545.445 708.515 520.782C709.824 519.805 711.347 518.59 712.657 517.613C721.09 518.739 728.672 507.457 721.703 499.458ZM333.706 47.0573C351.765 37.017 367.543 26.6478 388.438 23.4731C408.216 20.5857 432.737 21.9692 451.21 29.1166C461.372 33.0928 470.316 39.8526 479.858 44.9948C489.637 50.3506 499.608 55.0165 508.337 62.0145C522.973 73.8995 538.093 81.9086 553.993 91.9132C555.156 92.5293 556.037 92.0285 556.894 91.0761C566.098 98.5012 573.779 107.141 582.216 117.325C593.568 131.427 607.356 139.962 614.758 156.543C621.38 171.128 634.141 181.756 644.262 193.887C655.614 207.989 671.299 218.232 684.152 230.667C698.902 244.81 705.852 261.415 717.104 278.014C727.858 293.733 741.851 306.332 750.416 323.53C754.438 331.463 755.559 340.233 757.584 348.955C759.823 357.438 757.601 362.767 756.228 371.447C754.055 386.737 745.876 399.637 741.4 414.147C739.078 421.972 737.444 429.987 733.745 437.435C731.477 441.861 728.95 445.621 725.757 449.645C720.293 449.036 715.28 448.403 709.793 447.343C704.52 446.044 699.033 444.984 693.783 444.137C693.546 443.924 693.546 443.924 693.309 443.71C694.335 441.617 695.339 439.071 696.365 436.977C691.115 436.13 685.843 434.832 680.593 433.985C679.995 435.603 679.375 436.769 678.777 438.387C673.481 436.637 667.972 435.125 662.676 433.375C659.447 432.192 656.24 431.46 652.819 430.967C653.44 429.801 653.823 428.422 654.229 427.494C649.859 426.146 645.275 425.037 640.906 423.69C640.308 425.307 639.711 426.925 638.876 428.329C629.968 426.775 621.06 425.222 612.964 421.813C613.799 420.409 614.396 418.791 614.994 417.173C611.099 416.253 607.441 415.546 603.331 414.864C601.109 420.193 598.65 425.309 595.051 430.26C588.496 439.448 580.664 445.762 572.923 453.882C570.135 456.978 565.35 460.861 563.512 464.811C561.076 470.378 562.512 476.414 559.624 482.006C553.42 493.666 540.338 499.133 531.525 508.444C522.498 517.993 511.742 524.692 501.246 532.057C502.477 534.028 503.708 535.999 504.703 537.756C515.978 532.387 527.277 527.47 536.327 518.373C545.4 509.727 555.942 503.266 563.829 493.553C571.931 483.601 568.99 470.174 577.328 460.436C581.165 455.698 586.944 453.572 591.492 449.475C595.611 445.855 599.47 441.569 602.878 437.307C604.999 434.474 607.12 431.642 608.79 428.833C614.979 434.837 623.098 438.698 631.171 441.656C630.956 441.894 630.742 442.132 630.742 442.132C623.138 452.962 613.545 460.278 604.969 469.802C601.538 473.612 596.087 477.758 594.057 482.397C591.215 488.893 592.934 496.045 589.403 502.352C581.936 515.892 566.641 522.385 556.327 533.363C540.01 551.008 518.508 560.103 501.22 576.442C499.888 576.968 498.319 577.279 497.224 578.018C496.343 578.519 495.226 578.806 494.345 579.307C495.541 576.072 497.188 572.812 498.383 569.577C498.981 567.959 496.654 566.727 496.057 568.344C494.455 572.508 492.854 576.671 490.801 580.859C486.354 582.459 481.692 584.298 477.245 585.899C465.901 589.912 454.94 592.547 445.584 600.075C431.229 611.726 414.771 617.603 397.183 619.013C398.187 616.467 399.642 613.897 400.646 611.352C401.243 609.734 399.154 608.715 398.32 610.119C396.887 613.141 395.455 616.163 394.022 619.185C385.442 619.651 376.817 619.215 368.361 617.637C372.252 609.499 375.692 601.386 378.894 593.06C389.609 594.515 401.181 595.018 409.724 589.345C414.929 589.288 421.328 585.996 425.73 583.492C428.645 587.41 431.75 590.638 435.691 592.461C438.232 593.456 441.776 591.904 441.617 588.742C441.152 584.012 439.806 579.783 438.224 575.34C438.438 575.102 438.653 574.864 439.104 574.839C429.796 560.853 424.584 542.794 420.197 527.634C417.484 518.724 414.725 508.91 412.418 499.072C411.095 495.294 409.75 491.064 408.642 487.049C409.093 487.024 409.759 486.761 410.211 486.737C409.577 483.148 409.181 479.773 408.998 476.16C408.547 476.184 408.332 476.422 407.881 476.447C407.215 476.71 406.549 476.972 405.669 477.473C403.024 469.918 399.476 462.411 394.878 456.547C394.641 456.334 394.404 456.12 394.167 455.907C398.637 454.758 403.107 453.609 406.911 452.722C415.829 449.973 419.246 441.408 426.932 436.688C437.688 429.989 449.474 430.253 460.162 422.199C467.588 416.813 474.426 408.742 478.531 400.366C482.445 392.681 481.607 385.027 478.77 378.161C482.538 372.069 486.092 366.214 489.646 360.36C490.923 363.234 492.651 366.084 494.38 368.934C503.236 382.945 503.929 392.191 495.841 406.898C491.475 414.608 486.06 423.96 479.391 430.89C479.154 430.677 478.94 430.915 478.725 431.153C469.347 438.23 458.828 445.143 448.478 450.914C444.291 453.18 439.606 454.567 435.916 457.712C432.677 460.832 430.861 465.233 427.623 468.353C423.955 471.949 420.174 473.287 415.918 474.198C416.766 477.549 417.614 480.899 418.225 484.036C422.458 482.674 426.431 480.646 429.907 477.74C438.382 470.712 442.963 462.763 452.409 457.041C459.881 452.558 466.81 446.294 473.05 439.84C481.685 435.974 487.665 428.855 494.075 421.26C501.747 411.785 513.539 398.688 514.256 385.968C514.48 381.427 513.349 376.96 511.101 372.779C516.561 364.33 520.599 354.6 524.636 344.869C527.213 351.07 529.789 357.27 532.795 362.994C532.603 363.684 532.197 364.612 531.768 365.088C531.362 366.016 530.956 366.944 530.313 367.658C530.505 366.968 524.525 374.087 526.149 370.376C526.34 369.686 525.652 369.497 525.223 369.973C524.817 370.901 524.173 371.615 523.767 372.543C523.553 372.781 523.813 373.447 524.05 373.66C528.251 376.149 531.636 371.436 534.095 366.32C537.666 374.278 536.461 381.817 536.227 390.661C535.861 405.853 529.839 421.126 518.148 431.726C511.433 437.752 503.341 443.401 495.655 448.122C485.351 454.796 478.49 462.416 469.157 470.396C461.777 476.685 455.108 483.615 447.727 489.904C440.775 495.717 435.315 504.167 428.555 509.29C427.46 510.029 426.365 510.768 424.819 511.531C425.407 514.216 426.21 516.664 427.035 519.563C434.858 517.552 438.694 512.814 445.217 507.478C459.764 495.137 474.571 483.462 487.22 469.414C499.655 455.603 519.894 448.388 531.357 433.272C544.085 416.275 547.657 401.814 549.127 381.58C549.296 380.439 549.251 379.536 549.205 378.632C549.442 378.846 549.894 378.821 550.108 378.583C559.824 369.223 565.769 356.898 572.899 345.641C573.542 344.926 573.948 343.998 574.591 343.284C576.297 345.682 577.811 348.77 578.422 351.907C579.033 355.044 579.192 358.206 579.137 361.606C575.515 366.105 571.893 370.605 568.509 375.318C568.08 375.794 568.791 376.435 569.22 375.959C572.696 373.052 575.698 369.718 578.914 366.147C578.859 369.546 578.804 372.946 578.963 376.108C580.143 390.536 575.485 401.433 566.312 412.575C562.261 417.551 557.024 421.459 553.448 426.862C550.063 431.575 548.982 437.069 546.309 442.422C541.154 452.44 532.824 457.875 524.823 465.33C514.87 474.477 506.148 485.594 496.195 494.741C491.003 499.552 484.129 502.417 478.181 505.684C480.101 507.844 481.57 510.029 483.49 512.189C487.294 511.303 491.358 511.082 495.14 509.744C504.938 506.493 512.419 497.708 519.754 490.515C529.684 480.917 542.799 471.599 550.595 460.079C559.011 447.393 563.341 434.476 573.395 422.833C580.233 414.762 588.097 404.597 590.734 394.036C592.244 388.067 591.926 381.743 591.392 375.658C590.836 369.121 591.872 362.724 591.531 355.95C591.44 354.143 591.134 352.574 590.829 351.006C593.808 347.221 596.763 342.984 599.742 339.198C601.435 336.842 603.127 334.485 604.842 332.581C607.305 336.523 610.885 340.178 614.466 343.832C616.126 345.327 617.097 346.633 618.306 348.152C613.521 352.036 608.521 356.158 603.262 359.614C602.167 360.353 603.376 361.872 604.256 361.371C609.516 357.915 614.538 354.245 619.537 350.124C629.434 366.795 614.946 384.794 608.112 401.923C606.894 404.706 605.913 407.703 604.695 410.487C608.782 410.718 612.869 410.948 616.741 411.417L616.956 411.179C623.224 391.816 637.352 375.649 633.312 353.903C632.418 349.649 630.43 346.134 628.013 343.095C632.989 338.522 638.18 333.711 642.92 328.924C646.094 333.507 649.697 337.613 653.966 341.457C675.877 362.91 655.34 386.672 646.285 409.131C645.495 411.438 644.469 413.532 643.68 415.839C648.027 416.735 652.611 417.845 656.98 419.192C664.23 396.832 680.715 378.046 676.065 353.163C673.904 341.731 664.079 335.472 656.873 327.259C647.747 316.886 649.253 301.859 642.768 289.983C629.82 266.684 607.088 251.389 586.805 235.283C577.127 227.43 572.315 221.804 567.23 210.759C562.168 200.164 558.246 189.735 551.423 180.142C546.78 173.375 541.043 167.346 535.542 161.531C543.004 161.352 550.704 161.386 557.929 160.993C559.284 160.919 559.384 158.423 557.815 158.734C549.472 159.415 541.084 159.192 532.696 158.969C520.578 147.626 506.959 137.95 493.554 128.036C485.321 121.917 478.352 113.917 470.12 107.798C464.71 103.79 458.443 100.734 452.605 97.202C440.952 90.5895 428.34 87.4259 415.874 82.6692C406.164 78.6684 393.137 80.7357 383.836 84.8649C379.626 86.679 375.913 89.372 372.414 91.8268C368.633 93.1647 365.326 94.9298 362.019 96.6948C352.805 93.5728 343.445 92.0439 333.871 90.7531C337.234 85.5883 340.596 80.4235 344.669 75.8994C345.312 75.1851 345.955 74.4707 346.599 73.7564C355.27 75.0963 363.918 75.9846 372.757 76.1831C374.349 76.323 373.998 73.8511 372.643 73.9248C364.944 73.8907 357.436 73.1669 349.906 71.9914C367.006 65.3999 384.691 52.4361 402.517 51.24C402.968 51.2154 402.968 51.2154 403.42 51.1908C409.742 50.8469 416.369 52.0716 422.682 56.0307C425.719 57.9035 428.949 59.0866 432.155 59.818C432.461 61.3865 434.741 61.7153 435.813 60.5248C441.775 62.0121 448.165 63.0231 453.766 66.3417C469.857 75.6566 482.902 87.4017 497.73 98.597C502.902 102.392 508.717 105.472 514.104 109.029C520.416 112.988 524.516 117.973 529.971 122.885C543.727 135.271 556.375 143.641 566.915 159.598C578.472 177.765 581.339 203.198 597.489 218.171C607.45 227.14 618.743 235.583 629.325 243.386C642.47 252.635 651.336 262.343 661.671 274.236C672.006 286.128 674.313 295.966 677.797 311.175C680.647 322.796 687.83 330.557 696.391 338.697C721.859 363.353 698.107 390.687 687.641 416.618C686.231 420.092 685.059 423.779 683.649 427.252C688.493 429.027 693.574 431.015 698.418 432.789C698.801 431.41 699.422 430.244 699.805 428.864C708.227 402.817 727.286 381.174 721.956 351.799C719.466 338.347 708.264 331.71 699.85 321.978C689.277 309.872 691.122 292.561 683.642 278.928C668.706 252.114 642.462 234.519 619.119 216.088C607.803 207.193 602.471 200.236 596.415 187.885C590.81 175.508 585.917 163.773 578.099 152.423C560.308 127.349 535.893 110.108 511.24 92.6537C501.608 85.7049 493.667 76.3995 484.249 69.2125C477.891 64.35 470.698 60.8916 463.934 56.957C450.406 49.0878 435.751 45.809 421.648 40.0091C410.56 35.6303 395.489 37.5824 384.856 42.2368C379.98 44.3137 375.838 47.4829 371.459 50.4385C360.138 54.9039 349.359 61.1515 340.478 69.1075C340.478 69.1075 340.241 68.8939 340.026 69.132C331.095 67.1269 321.827 67.4046 312.896 65.3995C309.927 64.8816 306.698 63.6986 303.491 62.9672C313.604 56.9823 323.808 52.8041 333.706 47.0573ZM546.033 589.63C545.581 589.654 545.367 589.892 544.938 590.368C536.18 596.28 527.659 602.404 520.11 609.835C518.326 610.385 516.994 610.91 515.662 611.436C508.788 614.3 501.677 616.952 494.78 619.365C497.928 614.438 501.29 609.274 504.912 604.774C510.249 598.369 515.609 592.417 520.235 585.372C524.669 579.016 527.94 572.045 531.211 565.073C542.487 559.705 553.762 554.336 563.027 545C573.601 534.688 585.689 527.463 595.077 516.083C604.679 504.465 600.958 489.042 610.775 477.185C615.469 471.495 622.128 468.869 627.557 464.271C632.104 460.174 636.821 454.935 640.872 449.96C642.158 448.531 643.422 446.651 644.471 445.008C648.841 446.356 652.973 447.49 656.914 449.313C659.692 450.521 662.684 451.49 665.676 452.46C665.699 452.912 665.936 453.125 666.196 453.79C666.693 454.669 667.213 455.999 667.71 456.878C659.44 467.971 649.203 476.001 639.747 486.026C635.888 490.312 629.579 495.411 627.121 500.526C623.872 507.95 625.874 516.219 621.723 523.691C613.014 539.564 595.485 546.631 583.907 559.489C572.544 572.109 559.17 580.763 546.033 589.63ZM416.233 655.567C420.507 646.05 424.782 636.533 429.294 627.23C430.129 625.826 427.565 624.38 426.968 625.998C422.027 635.777 417.561 645.984 413.095 656.191C401.659 658.398 389.919 659.037 378.087 657.869C382.43 649.707 386.535 641.331 390.856 632.717C399.695 632.916 408.467 631.759 415.272 627.54C422.069 627.623 431.087 622.377 436.369 619.372C445.195 614.816 451.842 607.434 460.194 602.451C457.712 607.115 455.445 611.541 452.963 616.205C448.191 624.843 442.945 633.054 437.722 641.717C436.052 644.525 434.383 647.333 432.927 649.903C427.171 652.481 421.606 654.369 416.233 655.567ZM315.892 627.737C319.851 620.955 324.025 613.934 327.985 607.152C333.563 610.019 336.5 614.388 340.815 619.135C346.553 625.164 352.988 627.078 360.09 628.73C356.605 635.939 352.882 642.935 348.945 650.169C338.624 643.031 330.83 632.133 317.506 628.329C317.032 627.902 316.58 627.926 315.892 627.737ZM267.468 646.223C266.61 647.175 265.538 648.366 264.681 649.318C256.562 645.457 248.015 642.073 239.681 638.45C244.184 633.45 248.449 628.236 252.262 623.046C256.655 624.845 260.833 626.883 264.774 628.706C268.5 630.768 272.441 632.592 276.596 634.177C273.64 638.414 270.898 642.413 267.468 646.223ZM269.464 613.958C266.9 612.513 264.36 611.519 261.819 610.525C266.468 603.931 271.139 597.789 276.024 591.409C276.239 591.171 276.239 591.171 276.453 590.933C277.616 591.549 279.231 592.141 280.394 592.757C286.447 596.051 293.142 598.63 299.578 600.545C295.381 607.114 290.947 613.469 286.513 619.824C286.299 620.063 286.084 620.301 286.084 620.301C280.597 619.24 275.065 617.277 269.464 613.958ZM239.1 599.985C244.438 593.581 249.538 586.963 254.423 580.583C260.498 584.328 267.431 587.121 274.15 590.153C273.078 591.343 272.22 592.296 271.385 593.7C267.12 598.914 263.307 604.103 259.279 609.531C254.198 607.542 249.354 605.768 244.487 603.542C242.398 602.523 240.523 601.266 239.1 599.985ZM148.861 538.997C148.003 539.949 147.36 540.664 146.502 541.616C141.43 535.325 136.81 529.009 131.739 522.718C134.74 519.385 138.216 516.478 139.931 514.573C142.504 511.716 144.863 509.097 147.435 506.239C150.304 509.254 153.196 512.719 155.636 516.21C157.601 519.273 159.353 522.575 160.652 525.901C156.793 530.187 152.72 534.711 148.861 538.997ZM199.889 459.908C203.966 464.441 208.472 468.499 212.121 473.509C207.19 478.985 202.022 484.248 197.068 489.273C195.339 486.423 193.159 483.598 190.742 480.559C187.85 477.093 184.744 473.866 182.09 470.613C187.067 466.04 192.258 461.229 196.997 456.442C197.494 457.321 198.68 458.388 199.889 459.908ZM183.98 323.998C184.766 312.632 186.97 293.491 192.713 286.158C196.55 281.421 201.302 281.389 206.393 279.074C213.053 276.447 218.504 272.301 225.186 270.126C232.749 267.45 241.634 268.552 248.7 264.997C254.671 262.181 260.336 257.797 266.261 254.078C268.181 256.238 270.102 258.398 272.259 260.771C275.839 264.426 280.131 268.722 284.806 271.638C277.649 273.386 272.673 277.959 265.279 279.494C255.175 281.175 245.241 281.716 235.229 285.204C223.456 289.694 205.215 296.121 206.181 310.788C206.873 320.035 211.653 329.512 214.129 338.209C217.148 348.688 217.366 357.508 223.049 366.936C227.714 374.155 234.072 379.017 238.715 385.785C243.121 392.339 244.32 398.161 250.938 403.689C259.668 410.687 262.705 412.559 262.463 425.707C262.408 429.106 261.427 432.104 261.372 435.503C261.636 445.226 266.356 449.046 271.733 456.905C278.816 467.163 286.994 476.682 294.743 486.677C301.52 495.367 308.863 506.29 319.071 511.169C327.189 515.03 337.498 517.413 346.428 519.418C354.219 521.259 362.178 521.958 370.284 521.065C379.114 525.566 389.838 522.718 399.749 521.726C401.77 521.39 403.576 521.292 405.62 521.407C406.988 526.088 408.333 530.317 409.464 534.785C410.029 537.019 410.595 539.252 411.397 541.7C408.496 542.537 405.144 543.398 402.48 544.449C390.684 548.488 381.042 545.842 369.525 541.939C359.148 538.201 351.468 529.561 340.302 528.13C331.868 527.004 320.839 528.283 313.692 525.728C308.611 523.74 299.498 518.122 294.777 514.302C290.056 510.483 286.476 506.828 280.921 504.413C279.069 503.608 277.906 502.992 276.528 502.614C276.934 501.686 277.363 501.21 277.769 500.282C278.39 499.116 276.989 498.286 276.109 498.787C276.492 497.407 275.95 495.625 274.978 494.32C267.129 486.821 259.708 478.846 252.288 470.871C244.133 461.804 246.569 456.236 244.408 444.805C240.482 425.317 232.213 413.992 218.603 400.013C214.549 395.931 212.492 391.061 208.843 386.051C202.755 377.551 194.372 363.967 191.139 353.726C187.951 344.388 182.688 338.787 183.756 328.539C183.733 328.087 183.711 327.635 183.688 327.184L184.14 327.159C185.923 326.609 185.786 323.899 183.98 323.998ZM118.016 376.272C120.501 380.666 122.773 385.298 124.569 389.503C120.099 390.652 115.629 391.801 111.182 393.401C106.949 394.764 102.953 396.34 98.7201 397.703C96.8777 392.594 94.5838 387.511 92.0754 382.665C97.6631 381.229 103.251 379.793 108.838 378.357C111.954 377.282 114.855 376.444 118.016 376.272C117.993 375.821 117.993 375.821 118.016 376.272ZM53.6373 388.153C49.9887 383.143 46.5772 378.347 43.1658 373.551C44.9493 373.001 46.9699 372.664 48.7762 372.566C54.8382 371.557 60.9457 371.451 67.2449 370.656C69.5027 370.533 71.7378 369.958 73.7584 369.622C74.821 372.734 76.0979 375.609 77.8492 378.91C78.5835 380.003 79.1033 381.333 79.8376 382.425C71.1118 384.485 62.8375 386.52 54.3488 388.794C53.8973 388.818 53.8745 388.367 53.6373 388.153ZM81.3517 385.513C77.1871 388.231 70.6508 388.813 66.3723 389.272C65.9207 389.296 65.9207 389.296 65.4692 389.321C70.6052 387.909 75.9785 386.711 81.3517 385.513ZM108.013 375.458C102.211 377.132 96.6233 378.568 90.5841 380.029C88.5729 376.062 86.3473 372.334 84.3361 368.367C90.1837 367.596 96.0085 366.374 101.856 365.603C105.446 364.954 109.273 364.52 112.863 363.872C113.711 367.222 114.773 370.335 116.524 373.636C113.601 374.022 110.914 374.621 108.013 375.458ZM82.2565 363.046C80.1314 356.821 80.7385 350.9 79.9681 344.601C79.3572 341.464 79.1978 338.302 78.3497 334.952C87.1666 334.699 96.2207 334.659 105.275 334.619C105.726 334.595 105.726 334.595 106.178 334.57C107.049 338.373 108.157 342.388 108.813 346.429C109.99 351.8 110.906 356.505 112.274 361.186C108.019 362.097 103.526 362.794 99.0328 363.492C93.6368 364.238 88.6923 364.96 83.5335 365.92C83.0136 364.589 82.7536 363.924 82.2565 363.046ZM73.293 310.997C71.168 304.772 67.8476 301.782 67.0544 295.032C67.0316 294.58 67.0089 294.128 66.9861 293.677C76.7517 294.278 86.9233 293.951 96.6206 293.197C94.6361 298.74 94.2206 303.971 96.7745 309.719C97.5315 311.263 98.2886 312.807 99.0456 314.351C94.7671 314.811 90.2743 315.508 85.7586 315.753C82.1461 315.95 78.7707 316.36 74.9438 316.795C74.6383 315.226 74.0729 312.992 73.293 310.997ZM87.7971 199.021C101.695 200.756 115.593 202.491 129.491 204.226C124.04 208.372 118.375 212.756 112.427 216.024C99.2857 215.833 86.1674 216.093 73.072 216.806C77.2916 210.689 81.9629 204.547 87.7971 199.021ZM321.237 87.1378C319.645 86.998 317.816 86.6446 316.01 86.7428C301.897 85.246 288.36 81.6798 274.631 78.8035C275.94 77.8265 277.035 77.0875 278.344 76.1105C285.104 70.9874 292.598 66.9565 300.116 63.3773C306.314 65.0781 312.727 66.5409 319.118 67.552C325.485 68.1114 331.661 69.3606 338.051 70.3717C337.408 71.086 336.528 71.5868 335.67 72.5393C330.931 77.3261 325.977 82.351 321.237 87.1378ZM271.561 80.782C285.29 83.6584 298.828 87.2246 312.94 88.7214C314.983 88.8367 316.813 89.1901 319.093 89.5189C313.71 95.0201 308.305 100.07 302.211 104.93C295.132 103.73 288.267 102.292 281.403 100.854C272.02 98.873 262.661 97.3441 253.087 96.0533C259.158 90.7411 265.467 85.6425 271.561 80.782ZM478.427 155.806C481.295 158.821 483.982 158.222 488.046 158.001C495.057 157.846 502.136 159.046 509.169 159.343C512.116 159.409 515.514 159.45 518.46 159.516C525.316 165.258 531.696 170.572 537.502 177.955C525.502 177.929 513.049 177.927 500.789 177.235C493.245 171.305 485.25 165.399 477.491 159.707C470.207 154.442 464.661 147.724 457.592 142.221C452.894 138.853 447.553 136.2 442.426 133.308C432.41 127.739 421.628 124.929 411.014 120.977C402.703 117.806 391.674 119.085 383.705 122.689C380.161 124.241 376.877 126.457 373.593 128.674C363.603 132.614 354.608 138.312 347.081 146.194C342.127 151.219 337.839 155.981 332.863 160.554C332.626 160.341 332.388 160.127 331.914 159.7C324.575 157.835 317.236 155.97 309.683 154.342C315.563 149.72 321.68 145.311 327.322 140.475C336.87 132.257 341.268 120.695 349.415 111.647C350.272 110.694 351.13 109.742 352.225 109.003C367.35 103.651 383.489 91.4508 399.508 90.353L399.96 90.3284C405.616 90.2472 411.103 91.3074 416.704 94.6259C419.267 96.0716 422.045 97.2792 424.8 98.0351C425.105 99.6037 426.911 99.5054 428.006 98.7665C433.279 100.065 438.529 100.912 443.655 103.803C457.872 111.861 468.805 122.136 481.758 132.075C486.242 135.68 491.108 137.906 496.02 141.036C501.407 144.593 505.01 148.699 509.754 152.97C511.414 154.465 513.074 155.96 514.734 157.455C507.938 157.371 501.356 157.05 494.774 156.729C489.547 156.334 483.508 157.795 478.404 155.355C478.573 154.213 478.167 155.141 478.427 155.806ZM629.676 299.753C630.748 298.563 628.851 296.854 627.779 298.045C622.465 304.901 617.15 311.757 612.073 318.827C610.139 311.912 609.086 304.496 605.821 298.107C594.625 278.109 575.404 265.115 557.968 251.57C549.712 245 545.612 240.014 541.284 230.512C536.979 221.462 533.814 212.576 527.511 204.314C520.688 194.721 512.365 186.796 503.849 179.559C504.752 179.51 505.441 179.699 506.344 179.65C517.25 180.416 528.562 180.253 539.66 180.329C540.631 181.635 541.603 182.941 542.597 184.698C552.662 200.229 554.918 222.524 568.934 235.575C577.472 243.263 587.365 250.877 596.761 257.612C608.268 265.818 615.926 274.006 624.838 284.618C633.964 294.991 635.752 303.499 638.907 316.688C639.755 320.038 641.032 322.913 642.523 325.549C637.807 330.787 632.616 335.599 627.425 340.41C624.319 337.182 620.998 334.193 617.892 330.965C615.735 328.591 614.221 325.503 612.944 322.629C618.641 314.393 624.147 306.847 629.676 299.753ZM598.917 336.3C596.367 339.609 593.817 342.918 591.053 346.465C589.165 340.453 586.013 336.322 581.936 331.789C587.419 323.791 592.665 315.58 597.674 307.155C599.471 311.36 600.387 316.066 601.801 321.65C602.389 324.335 603.406 326.544 604.423 328.754C602.516 331.348 600.609 333.943 598.917 336.3ZM572.885 340.886C564.875 352.644 557.768 364.353 549.52 375.898C549.042 366.413 544.682 360.762 539.971 352.64C546.175 340.98 553.328 330.174 560.243 319.155C563.158 323.073 565.858 327.228 568.366 332.074C569.857 334.71 571.563 337.108 573.506 339.72C573.314 340.41 573.1 340.648 572.885 340.886ZM461.212 398.138C460.784 398.614 461.495 399.255 461.924 398.779C464.734 396.135 467.521 393.04 470.071 389.731C470.468 393.106 469.961 396.53 468.529 399.552C461.467 412.164 450.068 419.578 436.397 422.359C428.552 423.918 424.624 426.849 418.316 431.948C413.531 435.832 409.694 440.569 404.152 442.909C396.398 446.274 384.014 447.627 375.58 446.501C364.629 444.832 352.437 445.495 343.447 437.832C332.323 428.247 328.196 413.752 327.253 399.537C326.241 383.967 334.749 373.088 322.754 359.701C316.022 351.915 305.194 348.201 296.747 342.32C292.76 339.593 283.953 335.543 287.383 331.733C290.599 328.162 297.747 330.717 302.477 330.233C311.271 329.528 318.099 325.76 325.616 322.181C336.441 316.836 345.969 317.224 356.93 314.59C369.009 311.668 374.784 300.484 381.768 290.82C382.005 291.034 382.219 290.795 382.434 290.557C385.312 289.269 385.289 288.817 388.327 290.69C393.668 293.343 389.558 292.661 389.572 297.415C389.471 299.912 388.016 302.482 387.701 305.217C387.286 310.447 388.079 317.198 392.777 320.565C397.237 323.72 402.61 322.521 407.578 322.251C425.449 321.958 431.697 333.62 441.151 346.014C444.54 350.358 449.826 356.411 454.921 363.154C450.509 369.961 446.572 377.195 442.161 384.002C441.81 381.531 441.245 379.297 440.228 377.088C437.628 370.435 428.47 363.914 422.846 360.144C414.659 354.928 408.314 354.82 403.557 345.794C396.338 332.826 382.641 326.099 368.214 327.336C363.224 327.155 357.636 328.591 352.906 329.075C346.821 329.632 341.617 329.689 336.832 333.572C333.141 336.717 331.043 340.001 332.648 344.896C333.756 348.912 341.638 352.559 344.055 355.598C351.284 364.263 351.421 366.973 349.144 375.702C346.292 386.5 335.102 407.036 341.971 417.532C347.133 425.63 358.66 425.229 366.687 427.284C374.715 429.338 381.693 433.034 389.968 430.999C399.359 428.677 406.175 420.154 415.047 416.501C421.706 413.874 427.531 412.652 433.671 408.694C440.025 404.499 442.776 396.197 442.58 387.829C444.871 383.855 446.946 380.119 449.022 376.383C451.312 372.409 453.602 368.434 455.892 364.46C460.986 371.203 465.889 378.635 467.823 385.55C466.696 390.141 463.954 394.139 461.212 398.138ZM495.607 307.952C501.659 311.246 507.497 314.778 512.523 320.166C507.774 329.256 502.314 337.705 496.616 345.94C495.362 343.518 493.871 340.881 491.736 338.96C488.63 335.732 484.927 334.122 481.606 331.132C487.587 324.013 493.07 316.016 495.607 307.952ZM464.906 350.156C464.071 351.56 462.999 352.751 462.164 354.155C460.007 351.782 457.85 349.408 455.693 347.034C448.486 338.821 442.622 325.78 432.843 320.424C428.19 317.96 421.969 315.807 416.719 314.96C414.438 314.632 412.418 314.968 410.374 314.853C408.116 314.976 406.31 315.074 404.29 315.41C401.59 311.254 398.867 306.647 396.167 302.491C395.182 296.431 402.586 290.593 397.062 284.327C394.668 281.74 391.699 281.222 389.012 281.821C388.752 281.156 388.063 280.967 387.397 281.229C386.088 282.206 385.016 283.397 383.707 284.374C382.612 285.113 381.969 285.827 381.111 286.78C380.897 287.018 380.683 287.256 380.705 287.708C377.252 291.066 374.273 294.851 370.154 298.472C363.011 304.974 358.609 307.478 348.675 308.019C342.804 308.338 338.266 308.132 332.464 309.806C319.291 313.467 308.229 318.597 294.4 318.218C286.914 317.945 279.361 316.318 275.684 324.217C266.469 343.514 307.082 354.213 315.925 363.469C326.666 374.433 320.047 391.324 319.635 405.613C319.155 418.547 321.202 427.72 328.974 438.167C334.565 445.788 340.992 452.006 350.611 454.2C360.231 456.394 373.655 457.702 383.589 457.161C385.61 456.825 387.868 456.702 389.888 456.366C389.482 457.294 389.313 458.435 389.833 459.766C393.55 466.13 395.078 473.973 396.368 481.602C386.999 484.376 386.128 480.574 379.263 479.136C372.873 478.125 365.388 477.853 359.189 476.152C352.991 474.451 347.819 470.656 342.049 468.479C336.279 466.302 330.577 465.48 324.976 462.161C315.886 456.995 312.192 451.081 309.242 441.957C308.179 438.845 307.377 436.398 305.862 433.31C302.643 427.824 297.019 424.053 295.56 417.566C294.078 410.626 296.628 407.317 297.641 400.469C298.8 392.027 297.51 384.398 294.176 376.654C285.949 357.174 278.132 345.823 260.526 333.421C254.428 329.223 241.534 324.943 252.108 314.63C256.633 310.082 270.508 311.365 276.57 310.356C285.319 308.748 295.728 308.634 304.216 306.361C311.373 304.613 318.799 299.227 325.176 295.484C333.314 290.738 341.994 287.775 349.917 283.268C367.976 273.228 377.347 248.035 395.314 236.188C395.552 236.402 395.766 236.164 396.003 236.377C403.397 234.843 409.322 231.124 412.907 243.836C413.755 247.187 412.199 252.253 412.596 255.629C413.229 259.217 415.195 262.281 416.28 265.845C418.145 271.405 418.679 277.49 420.758 282.811C422.906 289.488 426.86 296.066 432.744 300.502C442.614 307.664 454.072 305.909 462.724 315.855C467.773 321.694 470.632 329.012 474.586 335.59C471.461 340.968 468.054 345.23 464.906 350.156ZM432.212 402.207C431.783 402.683 432.709 403.085 432.923 402.847C433.566 402.133 434.21 401.419 434.853 400.704C434.447 401.632 434.041 402.56 433.398 403.274C431.705 405.631 425.926 407.757 423.476 408.569C418.363 410.433 413.204 411.393 408.328 413.47C401.454 416.334 392.764 423.601 385.471 422.639C380.458 422.006 375.286 418.211 370.228 416.674C365.858 415.327 360.631 414.932 357.096 412.18C350.738 407.318 354.341 411.424 354.045 405.553C353.07 395.189 356.045 382.346 357.327 371.86C358.418 362.063 356.17 357.883 349.055 351.476C343.125 346.138 337.707 346.432 345.256 339.002C351.305 333.238 351.373 334.593 358.79 333.51C361.713 333.125 364.637 332.739 368.013 332.329C375.306 333.291 381.673 333.851 388.009 338.261C395.507 343.288 396.583 351.156 402.106 357.422C410.001 365.824 424.022 365.514 431.771 375.51C434.686 379.427 436.756 389.052 436.002 396.566C434.739 398.446 433.475 400.326 432.212 402.207ZM463.373 355.675C465.686 352.152 467.999 348.629 470.763 345.082C472.241 342.964 473.934 340.607 476.078 338.226C477.286 339.746 478.258 341.051 479.466 342.571C484.729 348.172 485.792 351.285 488.82 357.461C485.029 363.102 481.239 368.743 477.448 374.384C473.708 367.567 468.636 361.276 463.373 355.675ZM497.419 348.388C503.331 339.914 509.006 331.227 513.755 322.137C515.438 324.083 516.692 326.506 517.946 328.929C519.743 333.134 521.777 337.552 523.574 341.757C519.299 351.274 515.262 361.004 509.824 369.905C506.841 364.632 503.193 359.623 500.447 354.564C499.453 352.806 498.436 350.597 497.419 348.388ZM517.454 314.689C518.887 311.667 520.082 308.432 521.277 305.197C521.661 303.817 519.809 303.012 519.426 304.392C518.445 307.389 517.012 310.411 515.794 313.194C514.846 312.34 514.111 311.248 513.4 310.607C506.522 304.414 501.135 300.858 492.802 297.235C480.528 291.788 472.013 284.552 464.862 272.939C459.179 263.511 455.088 254.223 451.618 243.769C458.98 246.085 467.842 246.736 475.158 248.149C478.579 248.643 482 249.136 485.613 248.939C486.155 250.721 486.912 252.265 487.907 254.023C493.872 264.568 502.182 267.739 511.747 273.333C519.674 277.884 524.554 284.865 531.624 290.368C535.87 293.76 539.642 296.725 543.199 299.928C538.519 310.373 533.387 320.842 528.254 331.312C525.463 325.35 522.006 319.65 517.454 314.689ZM529.937 333.258C535.069 322.789 540.202 312.32 545.097 301.637C547.706 303.986 550.337 306.786 552.754 309.825C554.934 312.65 557.115 315.476 559.057 318.087C554.24 325.822 549.209 333.795 544.391 341.53C542.507 344.576 540.409 347.861 538.525 350.907C535.305 345.421 532.514 339.459 529.746 333.948C529.96 333.71 529.937 333.258 529.937 333.258ZM573.735 321.818C571.058 318.114 568.381 314.41 565.704 310.706C569.043 305.089 572.36 299.021 575.01 293.216C575.63 292.05 573.542 291.031 572.921 292.197C570.271 298.003 567.383 303.595 564.258 308.973C559.661 303.109 554.375 297.056 548.705 292.382C550.735 287.743 552.314 283.128 553.87 278.061C554.253 276.682 552.187 276.115 551.589 277.733C550.225 282.109 548.409 286.511 546.808 290.674C534.261 279.808 522.617 268.892 509.878 258.715C494.079 246.214 495.334 226.218 484.603 210.951C496.717 213.236 508.663 216.662 519.679 210.628C527.373 224.023 529.853 241.777 541.26 252.479C548.612 259.099 557.082 265.432 565.077 271.338C574.71 278.287 581.396 285.169 589.1 294.261C591.991 297.727 594.194 301.004 595.731 304.543C590.745 313.42 585.047 321.655 579.587 330.105C578.095 327.468 575.938 325.095 573.735 321.818ZM341.861 110.02C331.954 120.069 323.163 129.832 312.07 138.814C306.404 143.198 300.953 147.345 295.265 151.277C286.809 149.699 278.804 148.096 270.347 146.518C275.753 141.469 281.395 136.633 287.061 132.249C288.155 131.51 289.25 130.771 290.322 129.58C298.542 130.945 306.309 132.334 314.529 133.698C316.358 134.052 316.887 131.079 315.295 130.939C308.002 129.977 300.685 128.564 293.607 127.364C301.247 121.74 308.65 115.902 316.268 109.827C323.799 111.002 331.306 111.726 339.029 112.212C341.072 112.327 340.698 109.403 338.892 109.502C332.31 109.18 325.706 108.407 319.315 107.396C319.53 107.158 319.53 107.158 319.744 106.92C325.172 102.322 329.178 96.4432 332.968 90.8022C341.854 91.904 351.213 93.4329 359.738 96.366C352.909 100.134 347.03 104.757 341.861 110.02ZM277.366 164.479C274.319 166.909 271.294 169.791 268.033 172.46C260.954 171.26 253.683 170.749 246.627 170.001C245.487 169.836 244.346 169.672 242.992 169.746C251.512 163.621 259.751 156.379 267.537 149.162C275.542 150.765 283.761 152.129 291.766 153.732C286.959 157.164 282.151 160.596 277.366 164.479ZM250.231 97.7938C251.371 97.9582 252.512 98.1226 253.652 98.287C263.463 99.7914 273.32 102.199 283.154 104.155C288.189 105.24 293.677 106.3 298.926 107.147C291.309 113.222 283.431 118.633 275.576 124.495C270.326 123.648 265.291 122.563 260.041 121.717C251.133 120.163 242.202 118.158 233.294 116.605C230.324 116.087 227.592 115.783 224.623 115.265C233.641 110.019 242.162 103.894 250.231 97.7938ZM228.418 118.681C237.777 120.21 246.922 121.977 256.305 123.958C261.555 124.805 267.042 125.865 272.292 126.712C268.579 129.404 265.103 132.311 261.39 135.004C258.128 137.672 254.867 140.341 251.842 143.222L251.391 143.247C238.588 140.773 225.784 138.299 212.598 137.205C206.919 136.835 201.24 136.464 195.753 135.404C203.585 129.09 211.655 122.99 220.458 117.982C223.168 117.835 225.9 118.139 228.418 118.681ZM194.061 137.761C200.022 139.248 206.367 139.356 212.283 139.94C224.781 140.845 236.895 143.13 249.247 145.628C241.866 151.917 234.486 158.207 226.348 162.952C223.921 164.216 221.495 165.48 219.045 166.293C215.173 165.824 211.278 164.904 207.405 164.435C194.625 162.413 182.273 159.914 169.47 157.441C177.516 150.889 185.326 144.123 193.372 137.572C193.372 137.572 193.609 137.785 194.061 137.761ZM212.126 168.254C212.126 168.254 212.363 168.468 212.577 168.23C210.342 168.804 207.893 169.617 205.42 169.978C205.42 169.978 205.206 170.216 204.969 170.002C207.318 171.686 209.972 174.939 211.418 176.672C213.315 178.38 215.213 180.088 216.896 182.035C220.7 181.148 224.718 180.024 228.477 178.234C232.236 176.445 235.757 174.442 239.279 172.439C242.011 172.743 244.743 173.047 247.475 173.351C253.391 173.935 259.307 174.519 265.223 175.103C262.627 177.509 259.58 179.939 256.747 182.131C260.925 184.169 265.126 186.658 269.09 188.933C272.994 185.55 277.113 181.929 281.018 178.547C281.707 178.736 282.158 178.711 282.847 178.9C284.462 179.492 285.228 176.733 283.614 176.141C288.805 171.33 293.996 166.518 299.447 162.372C302.065 160.418 304.469 158.702 306.873 156.986C315.115 158.802 323.12 160.405 331.385 162.673C328.575 165.317 325.55 168.199 322.052 170.653C312.245 178.207 301.94 184.881 292.37 192.648C289.537 194.841 287.156 197.008 284.561 199.414C287.621 201.738 290.444 203.849 293.505 206.174C299.339 200.648 305.173 195.122 311.505 190.475C318.694 184.876 325.905 179.728 333.072 173.677C333.354 174.794 333.4 175.697 333.683 176.814C335.593 183.277 336.815 189.551 338.726 196.014C339.009 197.131 339.291 198.248 339.574 199.365C333.503 204.677 326.72 209.349 319.034 214.069C315.964 216.048 313.131 218.24 310.298 220.432C313.619 223.422 317.391 226.387 320.711 229.377C329.04 223.942 336.872 217.628 343.35 211.388C345.926 217.588 348.932 223.313 353.89 227.345C354.127 227.559 354.364 227.773 355.053 227.962C353.1 229.653 351.148 231.344 349.196 233.036C344.84 236.443 341.195 240.491 337.098 244.563C340.182 247.339 343.05 250.354 346.134 253.13C346.777 252.415 347.42 251.701 348.063 250.987C354.755 244.509 362.847 238.86 369.042 231.503C366.602 228.013 364.828 224.26 363.054 220.506C361.982 221.697 360.673 222.674 359.601 223.865C357.001 217.212 353.927 210.133 351.091 203.268C352.14 201.625 353.427 200.197 354.476 198.555C353.176 195.228 352.113 192.116 351.028 188.552C349.742 189.98 348.455 191.409 347.383 192.6C346.604 190.604 346.038 188.37 345.495 186.588C344.105 181.456 342.148 174.089 338.951 169.055C340.238 167.626 341.524 166.197 342.573 164.555C342.291 163.438 341.556 162.346 341.274 161.229C340.257 159.02 343.801 157.468 345.032 159.44C345.269 159.653 345.292 160.105 345.529 160.318C348.463 155.63 351.181 151.179 354.826 147.131C355.469 146.417 356.327 145.465 357.185 144.512C370.312 139.948 384.047 129.464 397.808 128.489L398.26 128.464C403.227 128.194 407.811 129.304 412.701 131.981C415.027 133.214 417.33 133.994 419.634 134.775C419.916 135.891 421.508 136.031 422.388 135.53C426.972 136.64 431.534 137.298 435.734 139.786C447.862 146.826 457.349 155.368 468.191 163.836C471.962 166.801 476.14 168.838 480.341 171.327C482.216 172.584 483.876 174.079 485.536 175.574C482.804 175.27 480.286 174.727 477.554 174.423C476.368 173.355 475.442 172.953 473.682 173.954C472.801 174.455 473.084 175.572 474.01 175.974C478.594 177.084 483.369 177.503 488.145 177.923C489.331 178.991 490.754 180.272 491.962 181.791C502.161 190.974 511.296 197.044 519.136 208.846C507.669 214.904 494.492 209.507 482.14 207.009C479.271 203.994 476.188 201.218 472.439 198.705C462.095 191.115 456.412 181.687 447.806 172.644C439.674 164.029 428.677 161.457 417.488 159.574C414.756 159.27 410.555 156.781 407.608 156.715C403.522 156.484 399.74 157.822 395.959 159.16C380.437 161.137 367.943 169.289 356.986 180.981C358.24 183.404 359.257 185.613 360.511 188.036C363.253 184.037 366.231 180.252 370.136 176.869C374.707 173.224 379.3 170.03 383.702 167.526C384.176 167.953 384.628 167.929 385.317 168.118C390.498 167.609 395.589 165.294 401.008 165C407.092 164.442 406.472 165.608 411.745 166.907C426.637 170.399 436.156 175.09 445.61 187.483C449.496 192.706 453.359 197.478 458.103 201.749C460.237 203.671 462.586 205.355 465.15 206.801C462.914 207.375 460.702 208.401 458.513 209.879C458.084 210.355 458.344 211.02 459.01 210.758C462.125 209.682 465.263 209.059 468.21 209.125C470.322 210.595 472.219 212.304 473.688 214.488C480.251 223.416 480.865 235.611 484.336 246.065C480.034 246.072 475.236 245.201 471.126 244.519C468.846 244.19 456.303 242.381 450.318 240.443C447.04 229.298 444.404 217.44 440.245 206.797C437.623 199.693 430.485 192.835 424.195 189.327C423.032 188.711 421.655 188.333 420.277 187.955C404.943 180.184 390.688 189.338 379.234 200.152C375.781 203.51 372.825 207.747 370.083 211.745C371.406 215.523 372.943 219.063 374.265 222.84C381.135 210.918 388.48 199.422 399.733 193.602C399.733 193.602 399.733 193.602 399.97 193.815C417.909 194.877 429.121 197.211 432.641 217.627C434.496 227.49 438.09 235.899 441.278 245.237C443.448 252.365 446.759 259.658 450.284 266.712C444.911 267.911 439.538 269.109 434.119 269.403C432.764 269.477 432.641 271.522 433.781 271.686C439.697 272.27 445.737 270.81 451.539 269.135C455.775 276.83 460.893 284.025 466.867 290.267C474.288 298.242 483.761 302.029 492.829 306.744C490.698 313.88 486.027 320.022 481.785 325.687C480.713 326.878 480.092 328.044 479.02 329.235C478.546 328.807 478.286 328.142 477.574 327.502C468.357 315.322 465.215 306.888 451.472 299.257C441.931 294.114 432.74 291.444 429.676 280.062C427.765 273.599 426.78 267.538 424.869 261.075C421.399 250.621 425.254 237.277 414.718 230.377C407.932 225.991 404.173 227.781 399.365 231.212C388.067 236.13 377.347 248.035 370.034 255.679C366.153 259.514 362.722 263.323 359.269 266.682C359.981 267.322 360.715 268.414 361.426 269.055C363.584 271.429 360.796 274.524 358.21 272.627C357.262 271.773 356.099 271.157 355.15 270.302C350.173 274.876 344.485 278.808 337.159 281.698C328.288 285.351 319.416 289.003 310.307 292.443C291.851 299.108 270.231 296.887 251.584 304.242C241.595 308.182 232.398 318.873 239.718 329.344C245.57 337.631 258.013 341.936 265.556 347.866C275.212 355.267 277.36 361.943 282.659 372.751C285.687 378.927 290.239 383.888 290.389 391.352C290.494 397.914 286.703 403.555 285.193 409.525C283.92 415.708 284.973 423.124 287.527 428.872C289.56 433.291 293.072 435.591 295.321 439.771C297.569 443.951 297.605 449.157 299.188 453.6C302.567 462.248 308.473 467.135 316.401 471.686C325.728 477.066 336.702 479.187 347.079 482.925C357.693 486.876 369.456 486.689 380.239 489.499C386.652 490.962 390.976 491.406 397.015 489.946C397.603 492.631 397.977 495.554 398.565 498.24C399.764 504.062 401.415 509.86 403.066 515.658C399.453 515.855 396.078 516.265 393.154 516.65C388.424 517.134 382.814 518.118 377.395 518.413C377.564 517.272 376.592 515.966 375.237 516.04C360.482 515.257 348.806 508.193 335.223 503.724C320.714 498.852 310.98 494.399 300.86 482.269C292.422 472.084 284.176 461.21 276.382 450.312C273.207 445.729 269.65 442.526 268.688 436.917C267.986 431.973 270.682 427.071 270.431 422.103C270.021 413.973 267.974 404.8 262.903 398.509C260.248 395.257 256.545 393.646 254.105 390.156C251.427 386.452 251.177 381.484 248.285 378.018C241.553 370.232 232.363 367.561 227.323 357.419C224.295 351.243 224.642 344.657 222.732 338.194C221.295 332.158 217.624 326.696 216.853 320.398C214.442 303.998 227.072 298.556 239.771 294.468C251.804 290.643 264.63 293.569 275.997 290.007C279.564 288.907 281.448 285.86 284.563 284.785C286.347 284.235 288.65 285.016 290.434 284.466C302.275 281.331 313.902 278.434 324.681 272.186C330.843 268.681 334.917 264.157 339.442 259.608C336.121 256.618 332.824 254.08 329.503 251.091C328.431 252.281 327.122 253.258 326.05 254.449C326.005 253.545 325.722 252.428 324.559 251.812C318.269 248.305 312.577 243.18 306.648 237.841C308.194 237.078 309.955 236.076 311.264 235.099C308.181 232.323 304.861 229.333 301.777 226.557C300.468 227.534 299.159 228.511 297.85 229.488C294.507 226.047 290.949 222.844 287.392 219.64C285.732 218.145 283.62 216.675 281.722 214.967C282.817 214.228 283.889 213.037 284.984 212.298C282.138 209.736 279.077 207.411 276.231 204.849C274.922 205.826 273.613 206.803 272.541 207.993C267.369 204.199 262.648 200.379 257.905 196.108L258.119 195.87C258.334 195.632 258.334 195.632 258.548 195.394C259.643 194.655 260.952 193.678 262.047 192.939C258.512 190.188 255.192 187.198 251.871 184.208C250.777 184.947 249.682 185.686 248.587 186.425C246.95 185.382 244.737 186.408 245.303 188.642C245.303 188.642 245.303 188.642 245.088 188.88C242.447 190.382 240.235 191.408 237.785 192.221C236.408 191.843 235.053 191.917 233.913 191.752C226.168 190.815 218.423 189.877 210.655 188.488C209.515 188.324 208.375 188.16 207.472 188.209C205.834 187.165 204.22 186.574 202.582 185.531C203.7 185.244 205.032 184.718 206.386 184.644C202.806 180.99 199.655 176.858 197.192 172.916C194.313 174.205 191.672 175.708 188.794 176.996C182.007 172.61 174.961 167.559 169.72 162.409C169.246 161.982 168.771 161.555 168.511 160.89C184.024 163.216 197.99 166.306 212.126 168.254ZM266.66 235.034C255.367 226.591 244.288 217.909 233.638 208.751C233.401 208.537 233.164 208.324 232.927 208.11C229.843 205.334 226.76 202.558 223.677 199.782C221.068 197.433 218.222 194.87 215.828 192.283C216.279 192.259 216.968 192.448 217.419 192.423C222.432 193.056 227.445 193.689 232.006 194.347C231.555 194.371 230.889 194.634 230.437 194.659C234.232 198.075 238.241 201.254 242.036 204.671C244.271 204.096 246.72 203.284 248.932 202.258C250.693 201.256 252.477 200.706 254.237 199.705C257.886 204.714 261.963 209.248 266.255 213.544C263.614 215.046 260.95 216.097 258.049 216.934C261.347 219.472 265.096 221.985 268.394 224.523C270.392 223.735 272.152 222.734 274.127 221.494C277.708 225.149 281.74 228.779 285.534 232.196C286.483 233.05 287.669 234.118 288.618 234.972C287.286 235.498 286.168 235.785 285.051 236.072C288.111 238.396 291.409 240.934 294.469 243.259C295.135 242.996 296.038 242.947 296.918 242.446C305.219 249.921 315.541 257.058 324.55 256.115C321.931 258.069 319.076 259.81 315.983 261.337C316.22 261.55 316.695 261.978 316.932 262.191C319.303 264.327 316.799 268.539 313.547 266.904C312.147 266.075 310.295 265.269 308.895 264.44C306.682 265.466 304.447 266.04 301.998 266.853C301.524 266.426 301.264 265.761 300.575 265.572C293.336 261.21 287.079 253.851 281.296 246.919C281.51 246.681 281.747 246.895 281.962 246.657C276.79 242.862 271.832 238.829 266.66 235.034ZM193.891 269.111C188.418 272.805 183.226 277.616 180.813 283.635C180.621 284.325 180.43 285.015 180.238 285.705C180.238 285.705 180.001 285.491 179.787 285.729C172.562 286.122 165.788 286.491 158.8 287.097C162.523 280.101 166.245 273.105 172.362 268.696C179.145 264.025 187.442 262.441 194.18 256.867C197.012 254.674 199.631 252.72 202.035 251.004C204.032 250.216 206.03 249.428 208.005 248.189C208.22 247.951 208.434 247.713 208.411 247.261C212.17 245.471 215.929 243.682 220.828 242.056C228.39 239.381 235.242 236.064 242.307 232.509C246.531 235.45 250.517 238.177 254.312 241.594C256.209 243.302 257.892 245.249 259.789 246.957C258.029 247.959 256.268 248.96 254.27 249.748C244.563 254.805 237.439 252.702 226.907 254.86C216.612 257.231 202.672 263.651 193.891 269.111ZM139.501 299.47C138.283 302.253 137.064 305.037 136.75 307.771C128.475 309.807 120.415 311.604 112.333 312.949C111.056 310.075 109.35 307.677 109.145 303.612C108.68 298.882 109.898 296.098 111.782 293.052C112.685 293.003 114.04 292.929 114.943 292.88C124.878 292.339 134.575 291.585 144.272 290.831C142.603 293.64 140.933 296.448 139.501 299.47ZM136.649 310.268C136.763 312.526 137.091 314.546 138.131 317.207C140.188 322.077 143.102 325.995 144.493 331.127C135.699 331.832 126.859 331.634 117.805 331.673C116.866 326.516 115.712 321.597 114.367 317.368C114.107 316.702 113.847 316.037 113.587 315.372C121.218 314.051 128.826 312.279 136.649 310.268ZM115.924 289.883C115.021 289.932 114.118 289.981 113.215 290.03C113.835 288.864 114.907 287.673 115.528 286.507C119.058 280.201 122.307 272.778 126.503 266.209C138.481 265.784 150.222 265.145 161.917 263.603C160.845 264.794 159.559 266.223 158.273 267.651C153.601 273.793 149.427 280.814 145.49 288.048C135.579 289.04 125.644 289.58 115.924 289.883ZM137.415 253.614C138.938 252.399 140.699 251.397 142.246 250.634C152.44 250.758 162.872 251.097 173.066 251.222C176.227 251.05 179.648 251.543 182.832 251.823C181.285 252.586 179.976 253.563 178.644 254.088C173.339 256.641 169.106 258.004 165.608 260.459C153.009 262.05 140.603 262.951 128.173 263.401C130.7 259.64 133.702 256.307 137.415 253.614ZM121.98 248.339C111.142 248.929 100.282 249.067 89.4217 249.205C92.5921 244.73 95.7853 240.706 100.164 237.751C109.351 231.363 120.335 229.181 129.239 221.676C129.668 221.2 130.548 220.699 130.977 220.223C143.666 220.439 156.333 220.202 168.785 220.204C160.433 225.188 153.55 232.356 144.249 236.485C135.614 240.351 130.049 242.239 124.238 248.216C123.572 248.479 122.883 248.29 121.98 248.339ZM189.952 190.973C195.858 195.86 201.742 200.296 207.84 204.493C205.842 205.281 204.081 206.283 202.083 207.071C187.351 206.74 172.595 205.957 158.031 204.485C160.243 203.459 162.907 202.408 165.357 201.596C173.8 198.419 181.769 194.815 189.952 190.973ZM153.178 207.014C167.076 208.748 181.143 209.342 194.972 209.722C188.979 212.086 182.962 213.998 176.968 216.363C176.517 216.387 176.088 216.863 175.637 216.888C162.281 216.935 149.14 216.744 135.762 216.34C140.999 212.431 146.281 209.427 152.037 206.849C152.726 207.038 152.726 207.038 153.178 207.014ZM162.754 239.781C173.181 231.061 181.579 226.981 194.018 222.229C196.682 221.178 199.131 220.365 201.558 219.101C203.816 218.978 206.074 218.855 208.331 218.733C210.138 218.634 210.024 216.376 208.646 215.998C211.739 214.471 214.617 213.182 217.71 211.655C223.356 215.877 228.551 220.124 233.555 225.06C233.792 225.273 234.029 225.487 234.266 225.7C225.203 230.043 215.856 233.269 206.51 236.495C198.947 239.171 193.542 244.22 187.425 248.629C180.606 248.094 173.381 248.487 166.585 248.404C160.24 248.296 153.895 248.188 147.313 247.867C152.641 245.766 157.969 243.664 162.754 239.781ZM171.287 184.516C159.501 184.251 147.907 183.297 136.098 182.58C134.506 182.44 132.914 182.301 131.322 182.161C131.988 181.898 132.868 181.397 133.534 181.135C144.144 176.028 153.997 169.378 163.138 162.088C164.415 164.962 165.929 168.05 168.324 170.637C171.69 174.53 175.507 178.398 179.539 182.029C177.327 183.055 175.329 183.843 173.331 184.631C172.642 184.442 172.191 184.467 171.287 184.516ZM105.596 188.316C112.324 187.044 118.386 186.035 124.425 184.574C126.706 184.903 128.986 185.232 130.793 185.133C142.41 186.539 154.219 187.256 165.554 187.545C165.554 187.545 165.554 187.545 166.005 187.52C159.346 190.147 152.663 192.322 145.766 194.735C140.868 196.361 136.917 198.84 132.753 201.558C118.617 199.609 104.505 198.112 90.3699 196.164C95.1549 192.28 99.1052 189.801 105.596 188.316ZM103.577 220.128C94.2768 224.257 87.8543 227.098 80.8703 236.762C77.6771 240.785 74.9583 245.236 72.2394 249.686C68.3897 249.669 64.5628 250.104 60.6903 249.635C56.8406 249.618 53.3969 248.673 49.9305 247.277C53.9585 241.849 57.9865 236.422 61.8229 231.684C64.8017 227.899 67.5432 223.9 70.3076 220.353C81.3824 219.977 92.4799 220.053 103.577 220.128ZM48.2381 249.633C50.993 250.389 53.7707 251.597 56.5029 251.901C61.0641 252.559 65.5798 252.313 70.547 252.043C68.0425 256.255 65.5381 260.467 63.4852 264.655C61.2274 264.778 59.4211 264.876 57.1633 264.999C50.3898 265.368 43.6391 266.188 36.8883 267.008C40.2048 260.94 43.9957 255.299 48.2381 249.633ZM87.7293 251.561C99.2784 251.612 110.568 250.998 122.094 250.598C121.665 251.074 121.022 251.788 120.593 252.264C117.829 255.811 115.302 259.572 113.011 263.546C107.807 263.603 102.603 263.66 97.1839 263.954C91.7423 263.798 86.3235 264.092 80.6675 264.173C82.9576 260.199 85.2249 255.773 87.7293 251.561ZM74.6777 275.595C76.3474 272.787 77.5654 270.003 79.4495 266.957C85.1054 266.876 90.3098 266.819 95.9658 266.738C101.17 266.681 106.375 266.625 111.342 266.355C106.739 273.851 102.61 281.775 98.9107 289.223C98.4819 289.699 98.5047 290.151 98.2903 290.389C93.7746 290.634 89.2361 290.428 84.7205 290.674C79.5161 290.731 74.3117 290.787 69.0845 290.392C68.8474 290.179 68.1814 290.442 67.4926 290.253C67.9081 285.022 71.3613 281.663 74.6777 275.595ZM89.079 318.743C93.1431 318.522 96.97 318.087 100.797 317.653C102.548 320.954 104.062 324.042 104.956 328.296C105.239 329.413 105.544 330.982 105.827 332.098C105.138 331.909 104.472 332.172 103.783 331.983C95.181 331.998 86.8156 332.227 78.4502 332.455C77.7937 328.415 77.1371 324.375 76.0291 320.359C80.2848 319.448 84.5633 318.989 89.079 318.743ZM122.063 362.239L122.04 361.787C131.455 359.916 140.609 357.38 150.001 355.058C150.872 358.86 151.506 362.449 153.042 365.988C144.079 367.835 135.094 369.229 126.131 371.076C124.402 368.226 123.125 365.351 122.063 362.239ZM121.237 359.34C120.344 355.086 120.805 350.758 120.125 346.266C119.492 342.678 119.05 338.399 118.393 334.359C127.447 334.319 136.287 334.518 145.081 333.813C145.997 338.518 147.365 343.199 148.282 347.905C148.587 349.474 148.893 351.042 149.198 352.611C139.807 354.933 130.629 357.017 121.237 359.34ZM152.685 322.983C151.103 318.54 148.494 316.191 148.244 311.222C147.688 304.686 150.498 302.042 153.622 296.663C154.863 294.331 156.104 291.999 157.345 289.667C164.57 289.274 172.009 288.643 179.235 288.25C175.74 299.763 175.971 313.337 174.757 325.179C172.071 325.778 169.169 326.615 166.268 327.452C162.487 328.79 158.446 329.463 154.619 329.897C154.053 327.664 153.488 325.43 152.685 322.983ZM336.931 591.493C337.766 590.089 335.44 588.857 334.605 590.261C333.77 591.665 332.935 593.069 332.1 594.473C330.249 593.668 328.397 592.863 326.093 592.083C320.583 590.571 315.096 589.511 309.609 588.45C313.569 581.668 317.529 574.885 321.014 567.676C325.124 568.358 329.188 568.137 333.129 569.961C339.587 572.327 342.073 576.721 346.602 581.23C352.576 587.472 359.204 588.696 367.423 590.061C370.392 590.579 373.362 591.096 376.568 591.828C373.366 600.154 369.926 608.267 366.034 616.405C365.583 616.429 364.894 616.24 364.443 616.265C351.854 613.553 344.94 602.153 334.212 595.944C335.047 594.539 336.096 592.897 336.931 591.493ZM261.836 570.442C266.699 563.611 271.347 557.017 275.758 550.21C281.811 553.504 288.721 555.846 294.774 559.14C295.462 559.329 295.937 559.756 296.625 559.945C293.355 566.916 288.255 573.534 282.895 579.487C276.391 576.217 269.266 574.114 262.31 570.869C262.31 570.869 262.073 570.656 261.836 570.442ZM246.343 483.196C252.058 488.773 257.321 494.374 263.848 498.095C265.431 502.538 266.877 504.271 270.389 506.571C267.455 511.26 263.833 515.759 260.211 520.259C255.942 516.415 250.816 513.523 245.689 510.632C245.452 510.418 245.429 509.967 245.192 509.753C244.006 508.685 242.583 507.404 241.397 506.336C244.184 503.241 247.186 499.907 249.973 496.812C251.045 495.621 249.385 494.127 248.313 495.317C245.526 498.413 242.524 501.746 239.737 504.842C237.365 502.706 235.208 500.333 233.694 497.245C231.92 493.491 230.315 488.597 228.969 484.368C228.19 482.372 228.121 481.017 226.393 478.167C228.751 475.548 231.324 472.69 233.682 470.071C237.591 475.746 241.363 478.711 246.343 483.196ZM221.579 494.96C224.676 502.491 228.731 506.573 234.354 510.343C228.566 516.772 222.562 523.439 216.774 529.868C213.691 527.092 211.059 524.291 209.048 520.324C207.014 515.906 205.149 510.346 203.781 505.665C203.543 505.452 203.046 504.573 203.046 504.573C208.192 498.858 213.337 493.144 218.483 487.429C219.997 490.517 220.562 492.751 221.579 494.96ZM236.703 512.027C238.341 513.07 239.978 514.113 241.615 515.156C242.09 515.583 242.993 515.534 243.445 515.51C247.499 519.591 253.666 525.144 254.851 526.211C255.089 526.425 255.089 526.425 255.326 526.639C253.825 528.305 252.561 530.186 251.061 531.852C247.01 536.828 243.196 542.018 239.597 546.969C234.402 542.722 228.801 539.404 222.986 536.323C222.749 536.11 222.726 535.658 222.489 535.445C221.303 534.377 220.117 533.309 218.931 532.242C224.697 525.361 230.7 518.694 236.703 512.027ZM255.722 530.014C256.151 529.538 256.58 529.061 256.794 528.823C261.154 534.474 263.539 541.364 269.209 546.037C270.632 547.319 272.032 548.148 273.669 549.191C269.258 555.998 264.395 562.83 259.747 569.423C252.96 565.037 251.569 559.905 246.046 553.638C244.6 551.905 242.94 550.41 241.28 548.915C245.928 542.322 250.6 536.18 255.722 530.014ZM298.714 560.963C304.981 564.019 311.892 566.361 318.97 567.561C315.248 574.557 311.525 581.553 307.329 588.121C299.775 586.494 292.436 584.629 284.984 580.505C290.106 574.339 295.444 567.935 298.714 560.963ZM366.877 579.221C353.599 576.32 347.689 562.375 334.151 558.809C323.131 555.785 312.914 555.209 302.492 550.568C302.684 549.878 302.638 548.974 302.83 548.285C302.976 546.692 300.695 546.363 300.549 547.956C300.357 548.646 300.38 549.097 300.189 549.787C299.5 549.598 298.788 548.957 298.1 548.768C292.284 545.688 285.634 544.012 279.819 540.931C271.7 537.07 270.546 532.151 265.475 525.86C264.503 524.554 263.317 523.486 262.131 522.419C265.753 517.919 269.138 513.206 272.523 508.493C273.923 509.323 275.324 510.152 277.413 511.171C286.243 515.672 294.42 525.191 302.224 531.787C307.182 535.82 312.331 539.163 318.767 541.077C327.958 543.747 336.187 540.809 345.017 545.31C349.906 547.988 354.198 552.284 359.494 554.034C366.641 556.589 379.253 559.752 386.738 560.025C396.266 560.412 405.093 555.856 413.49 551.776C415.232 559.38 417.685 567.626 420.973 574.467C404.37 581.937 385.404 582.969 366.877 579.221ZM232.606 462.204C232.957 464.676 233.286 466.696 234.043 468.24C233.828 468.478 233.828 468.478 233.614 468.716C231.256 471.336 229.112 473.717 226.753 476.336C225.454 473.01 223.488 469.946 221.522 466.883C224.953 463.073 228.597 459.025 232.028 455.216C232.142 457.474 232.493 459.946 232.606 462.204ZM213.804 475.455C216.007 478.732 217.306 482.058 218.606 485.384C213.461 491.099 208.315 496.814 203.17 502.528C201.824 498.299 200.05 494.546 198.062 491.031C203.23 485.768 208.398 480.505 213.33 475.028C213.567 475.242 213.567 475.242 213.804 475.455ZM191.647 458.092C187.979 461.688 184.312 465.284 180.407 468.667C179.435 467.361 178.012 466.08 177.041 464.774C181.995 459.749 186.712 454.51 190.265 448.656C191.711 450.389 193.394 452.335 195.077 454.282C194.005 455.472 192.719 456.901 191.647 458.092ZM169.268 476.746C169.742 477.173 169.979 477.386 170.239 478.051C166.786 481.409 163.119 485.006 159.903 488.577C158.616 490.006 157.33 491.435 156.043 492.863C155.309 491.771 154.123 490.703 153.389 489.611C154.675 488.182 156.176 486.516 157.463 485.087C160.441 481.302 163.894 477.944 167.348 474.585C167.845 475.464 168.556 476.105 169.268 476.746ZM161.329 498.916C160.121 497.397 158.698 496.116 157.489 494.596C160.92 490.787 164.135 487.215 167.803 483.619C169.089 482.19 170.613 480.975 171.899 479.546C176.688 484.72 181.669 489.205 185.815 495.094C186.549 496.186 187.283 497.278 187.803 498.609C183.707 502.681 179.61 506.754 175.062 510.851C173.991 512.041 172.681 513.018 171.609 514.209C168.841 508.698 165.667 504.115 161.329 498.916ZM188.583 500.604C190.38 504.809 191.725 509.038 193.307 513.481C188.162 519.196 183.016 524.911 177.871 530.625C177.611 529.96 177.351 529.295 177.091 528.63C175.746 524.4 174.186 520.409 172.649 516.87C178.032 511.368 183.2 506.105 188.583 500.604ZM193.398 515.288C195.556 517.662 194.63 517.259 194.675 518.162C198.315 527.475 203.532 532.173 210.319 536.56C204.316 543.227 198.313 549.894 192.095 556.799C188.301 553.382 184.483 549.514 181.975 544.668C180.201 540.915 180.753 538.394 177.296 532.695C182.893 526.956 188.038 521.241 193.398 515.288ZM213.142 538.671C214.78 539.714 216.417 540.757 218.055 541.8C218.766 542.441 219.669 542.392 220.121 542.367C224.887 547.09 232.239 553.71 233.425 554.777L233.662 554.991C231.541 557.824 229.42 560.657 227.536 563.703C224.58 567.94 221.172 572.201 217.979 576.224C212.073 571.337 205.309 567.403 198.782 563.682C198.544 563.468 198.522 563.017 198.047 562.59C196.861 561.522 195.676 560.454 194.49 559.386C200.707 552.481 206.925 545.576 213.142 538.671ZM232.175 561.412C233.224 559.77 234.51 558.342 235.345 556.937C240.44 563.68 243.582 572.114 250.2 577.642C250.911 578.283 251.837 578.685 252.311 579.112C249.761 582.421 246.997 585.969 244.447 589.278C242.111 592.348 239.539 595.206 236.752 598.301C232.245 594.244 229.951 589.16 225.14 583.534C223.22 581.374 221.537 579.428 219.402 577.506C224.119 572.267 228.147 566.84 232.175 561.412ZM291.558 616.606C294.92 611.441 298.519 606.49 301.881 601.325C304.399 601.868 306.703 602.648 308.983 602.977C314.47 604.037 319.889 603.743 325.207 605.944L325.445 606.158C321.271 613.178 317.096 620.199 313.137 626.981C304.658 624.952 296.438 623.587 288.411 621.533C289.46 619.891 290.509 618.248 291.558 616.606ZM363.274 629.009C363.963 629.198 364.651 629.387 365.34 629.576C371.968 630.801 379.972 632.404 387.932 633.103C383.826 641.478 379.483 649.64 375.377 658.016C371.053 657.572 366.707 656.676 362.36 655.78C358.702 655.073 355.45 653.439 352.198 651.804C355.66 644.143 359.36 636.695 363.274 629.009ZM437.712 646.02C443.15 637.119 448.588 628.218 453.788 619.104C456.89 613.274 459.993 607.444 463.309 601.376C463.523 601.138 463.523 601.138 463.975 601.113C471.278 597.772 478.603 594.883 486.166 592.207C480.842 603.366 475.067 614.55 469.743 625.709C469.337 626.637 468.717 627.803 468.311 628.731C463.886 630.783 459.936 633.262 455.794 636.431C449.485 641.53 442.894 645.512 436.257 648.59C436.663 647.662 437.069 646.734 437.712 646.02ZM472.521 626.916C473.547 624.823 474.551 622.277 475.577 620.183C480.281 610.19 485.221 600.41 489.71 590.655C491.042 590.13 492.589 589.366 493.921 588.841C501.461 585.713 511.947 582.652 517.521 576.461C518.808 575.033 518.265 573.25 517.079 572.183C520.386 570.418 524.145 568.628 527.452 566.863C524.993 571.979 522.534 577.094 519.387 582.021C513.926 590.47 507.043 597.638 500.656 605.685C496.82 610.423 493.458 615.587 490.333 620.966C484.079 622.664 478.063 624.577 472.521 626.916ZM26.609 305.61C27.3394 297.645 26.6923 289.302 29.7033 281.665C31.0902 277.74 33.1659 274.004 35.0043 270.054C41.5407 269.472 48.0542 268.438 54.5905 267.856C56.8484 267.734 59.1062 267.611 61.8156 267.463C59.7399 271.2 57.687 275.387 55.8258 278.885C53.9645 282.383 52.792 286.07 52.0711 289.733C51.8567 289.971 51.6423 290.209 51.4279 290.447C50.9991 290.923 51.0446 291.827 51.7334 292.016C51.6784 295.415 52.0977 299.242 53.6346 302.782C55.9513 308.317 59.1484 313.351 61.2279 318.673C52.2421 320.068 43.2563 321.462 34.2478 322.405C37.7692 320.402 41.765 318.826 43.3796 319.418C43.854 319.845 44.26 318.917 44.0228 318.703L41.9111 317.233C41.6739 317.019 41.2223 317.044 41.0079 317.282C36.3917 320.024 31.9444 321.625 26.8311 323.488C25.262 323.8 25.613 326.272 27.4193 326.173C38.9456 325.773 50.8552 323.993 62.3132 322.237C62.336 322.689 62.5731 322.902 62.5959 323.354C63.2069 326.491 64.0323 329.39 64.8804 332.741C63.0742 332.839 61.4823 332.699 59.676 332.797C48.3869 333.411 36.1263 332.72 25.4253 336.019C25.1198 334.451 25.0515 333.096 24.746 331.527C23.8617 322.97 25.9241 314.479 26.609 305.61ZM25.7991 338.943C29.4116 338.746 32.8098 338.788 35.688 337.499C45.3625 336.293 55.297 335.753 65.2315 335.213C65.8424 338.35 66.6678 341.249 67.2788 344.386C69.0434 352.442 70.548 359.833 72.9558 367.175C70.4836 367.536 68.0113 367.897 65.5391 368.257C60.1431 369.004 54.9387 369.06 49.5427 369.807C46.6189 370.192 43.9322 370.791 41.2456 371.391C40.7713 370.963 40.7485 370.512 40.2742 370.085C43.604 368.771 47.6681 368.55 49.9714 369.331C50.6602 369.52 50.8291 368.378 50.3775 368.403C47.5998 367.195 43.0841 367.441 39.0656 368.565C33.4057 359.589 27.9602 350.374 25.7991 338.943ZM71.4233 426.588C66.7444 414.614 62.7769 403.281 56.3372 392.309C60.4013 392.088 64.6571 391.177 68.2469 390.529C72.5026 389.618 77.8986 388.871 81.6345 386.63C83.9056 391.262 85.9624 396.132 87.782 400.788C82.8603 401.962 77.7242 403.374 72.8481 405.45C71.5161 405.976 71.6072 407.782 72.9847 408.16C76.6655 409.319 80.0637 409.361 84.3194 408.45C84.9853 408.187 84.9398 407.284 84.0367 407.333C81.5644 407.694 79.521 407.578 77.2176 406.798C80.999 405.46 84.566 404.36 88.5845 403.236C89.8842 406.562 90.7324 409.912 91.6033 413.715C95.6674 413.494 99.9687 413.486 104.033 413.265C102.45 408.822 100.868 404.379 99.0711 400.174C102.424 399.313 105.754 397.999 109.106 397.138C114.457 395.488 119.807 393.838 124.943 392.426C127.26 397.962 129.148 403.973 130.392 410.699C130.652 411.364 130.675 411.816 130.721 412.719C131.172 412.694 132.075 412.645 132.527 412.621C126.839 416.553 119.185 417.423 112.48 419.146C111.148 419.671 109.816 420.197 108.484 420.722C103.042 420.565 97.838 420.622 92.3965 420.465C92.4192 420.917 92.6564 421.13 92.6792 421.582C86.6172 422.591 78.8628 425.957 71.4233 426.588ZM192.593 427.469C191.193 426.64 189.578 426.048 187.964 425.457C186.992 424.151 186.472 422.82 185.715 421.276C181.628 421.046 177.304 420.602 173.217 420.371C173.477 421.036 173.974 421.915 174.234 422.58C166.941 421.618 159.41 420.443 152.117 419.481C148.482 419.226 144.869 419.422 141.02 419.405C133.557 419.585 125.644 419.789 118.181 419.968C125.124 418.458 132.089 417.4 137.494 412.351C137.709 412.112 137.709 412.112 137.923 411.874C139.729 411.776 141.773 411.891 143.579 411.793C140.72 404.476 138.312 397.134 135.453 389.817C139.257 388.93 142.846 388.282 146.888 387.61C148.908 387.273 148.535 384.35 146.751 384.9C142.71 385.572 138.454 386.483 134.413 387.156C133.136 384.282 131.859 381.407 130.368 378.771C129.373 377.013 128.616 375.469 127.622 373.712C136.585 371.866 145.334 370.257 154.082 368.649C154.839 370.193 155.382 371.975 156.353 373.281C161.607 383.186 165.201 391.595 167.791 402.55C168.402 405.687 169.227 408.586 170.267 411.247C174.117 411.264 177.752 411.519 181.387 411.775C176.042 400.063 172.887 386.875 166.876 375.426C165.148 372.576 163.871 369.702 162.142 366.852C163.711 366.54 165.28 366.229 166.849 365.917C168.633 365.367 167.83 362.92 166.047 363.469C164.478 363.781 162.909 364.093 161.125 364.643C160.628 363.764 160.345 362.647 159.848 361.769C159.023 358.87 158.649 355.946 158.512 353.236C163.22 352.301 167.904 350.914 172.612 349.978C174.181 349.667 173.378 347.219 171.809 347.531C167.102 348.466 162.846 349.377 158.376 350.526C158.33 349.623 158.285 348.72 158.025 348.054C157.345 343.562 156.621 338.167 155.681 333.01C158.842 332.838 161.981 332.214 164.882 331.377C168.449 330.277 171.564 329.202 174.917 328.34C174.163 335.854 174.706 337.636 178.683 344.666C185.405 356.755 189.487 370.347 196.661 382.411C198.129 384.596 199.812 386.542 201.258 388.275C207.301 395.872 205.02 395.543 208.477 401.243C214.137 410.22 222.675 417.907 227.24 427.623C230.811 435.581 231.481 444.376 232.365 452.933C232.128 452.719 231.462 452.982 231.248 453.22C227.818 457.03 224.173 461.078 220.742 464.887C220.245 464.009 219.534 463.368 218.822 462.727C214.485 457.529 209.696 452.354 205.144 447.394C207.717 444.536 210.29 441.679 213.574 439.462C217.716 436.293 221.689 434.265 225.119 430.455C225.977 429.503 224.554 428.222 223.696 429.174C219.431 434.388 213.223 436.99 208.246 441.564C206.96 442.992 205.436 444.207 203.936 445.874C203.698 445.661 203.224 445.233 202.987 445.02C202.75 444.806 202.275 444.379 202.038 444.166C202.49 444.141 203.179 444.33 204.082 444.281C209.072 444.463 208.73 437.688 204.812 436.316C200.205 434.755 196.534 429.293 192.593 427.469ZM124.25 513.388C127.963 510.695 131.913 508.216 135.175 505.548C137.579 503.832 139.745 501.902 142.149 500.186C143.572 501.468 144.781 502.987 146.204 504.268C141.916 509.03 137.628 513.793 133.103 518.341C132.46 519.056 131.602 520.008 130.722 520.509C130.01 519.868 129.513 518.99 128.802 518.349C127.141 516.854 125.696 515.121 124.25 513.388ZM150.105 545.723C149.394 545.082 148.659 543.99 148.162 543.111C152.665 538.111 157.404 533.324 161.692 528.562C163.512 533.218 164.903 538.351 166.722 543.007C163.721 546.341 160.719 549.674 157.503 553.246C154.894 550.897 152.285 548.548 150.105 545.723ZM159.615 554.716C162.402 551.621 165.189 548.525 167.976 545.43C172.304 554.932 177.522 559.63 185.472 564.632C183.113 567.252 180.969 569.633 178.611 572.252C176.194 569.213 173.325 566.199 170.005 563.209C166.47 560.458 162.935 557.706 159.615 554.716ZM180.554 574.864C183.127 572.006 185.485 569.387 188.058 566.53C189.695 567.573 191.333 568.616 193.207 569.873C194.133 570.275 194.822 570.464 195.725 570.415C201.203 575.778 209.741 583.466 211.164 584.747C206.041 590.914 201.156 597.294 196.247 603.222C195.987 602.557 195.49 601.678 195.23 601.013C190.902 591.511 186.383 582.699 180.554 574.864ZM197.287 605.883C200.243 601.646 203.413 597.171 206.607 593.148C208.536 591.005 210.228 588.648 212.158 586.505C217.941 593.437 221.106 602.323 227.555 608.992C222.838 614.23 218.336 619.231 214.094 624.896C207.713 619.582 201.738 613.34 197.287 605.883ZM215.471 625.274C220.448 620.701 225.402 615.676 229.904 610.676C230.141 610.889 230.141 610.889 230.378 611.103C236.048 615.776 243.003 619.021 250.173 622.028C249.316 622.98 248.695 624.146 247.838 625.099C244.667 629.574 240.786 633.408 237.141 637.456C229.259 633.808 222.044 629.898 215.471 625.274ZM280.298 658.206C276.312 655.479 271.659 653.015 267.244 650.764C269.174 648.621 271.081 646.026 272.773 643.67C274.894 640.837 277.015 638.004 279.137 635.171C285.358 637.324 291.794 639.238 297.97 640.488C300.25 640.816 302.531 641.145 304.574 641.261C304.168 642.188 303.525 642.903 302.905 644.069C298.73 651.089 294.342 658.348 290.168 665.368C287.322 662.806 283.81 660.506 280.298 658.206ZM292.517 667.052C296.905 659.794 301.294 652.535 305.445 645.063C306.066 643.897 306.686 642.731 307.521 641.327C310.49 641.845 313.674 642.124 316.452 643.332C324.762 646.503 328.456 652.416 334.645 658.42C336.803 660.794 339.152 662.477 341.478 663.71C338.782 668.612 336.085 673.514 333.627 678.629C331.145 683.293 328.234 688.434 325.99 693.311C325.278 692.671 324.353 692.268 323.878 691.841C313.082 684.276 303.121 675.307 292.517 667.052ZM328.836 695.874C333.991 685.856 339.146 675.838 344.301 665.821C349.879 668.687 355.818 669.723 362.682 671.161C364.274 671.301 365.889 671.893 367.481 672.032C361.491 683.454 353.74 695.878 353.498 709.025C344.353 707.258 336.594 701.566 328.836 695.874ZM358.725 709.42C358.273 709.445 357.585 709.256 356.919 709.518C358.279 696.084 364.269 684.662 370.45 672.55C380.973 674.695 393.042 676.077 404.071 674.798C398.487 685.291 391.526 695.407 389.171 707.084C378.831 708.553 368.468 709.569 358.725 709.42ZM573.165 624.838C539.068 644.583 503.831 664.163 468.006 681.057C445.002 691.819 418.556 701.636 391.858 706.485C391.858 706.485 391.858 706.485 392.073 706.247C392.287 706.009 392.05 705.796 392.027 705.344C395.996 694.259 401.84 684.43 407.424 673.936C412.131 673 416.578 671.4 420.528 668.92C421.432 668.871 422.098 668.609 423.001 668.559C419.561 676.672 416.358 684.999 410.829 692.093C409.757 693.283 412.061 694.064 412.061 694.064C418.493 686.921 420.646 680.236 423.443 672.838C424.04 671.22 424.875 669.816 425.687 667.96C432.393 666.237 440.101 661.968 444.955 659.44C450.26 656.886 454.83 653.241 459.401 649.596C458.037 653.972 457.124 658.325 458.707 662.768C458.967 663.433 460.13 664.049 460.773 663.334C465.344 659.689 468.514 655.214 468.669 649.318C468.647 648.866 467.958 648.677 467.766 649.367C467.328 654.146 465.252 657.882 461.302 660.362C460.815 655.18 462.393 650.565 464.423 645.926C468.351 642.995 472.278 640.064 476.94 638.225C478.486 637.461 480.032 636.698 481.602 636.386C479.289 639.909 476.976 643.431 474.663 646.954C474.234 647.43 474.946 648.071 475.375 647.595C479.257 643.76 482.427 639.285 485.597 634.81C494.469 631.157 503.127 627.742 511.784 624.328C515.78 622.752 520.228 621.151 524.438 619.337C522.723 621.242 521.244 623.36 519.552 625.717C515.738 630.906 512.185 636.761 507.682 641.761C502.537 647.476 495.946 651.457 491.037 657.386C490.608 657.862 491.32 658.503 491.749 658.026C497.606 652.952 504.197 648.97 509.58 643.469C514.748 638.206 518.708 631.424 523.165 625.52C525.286 622.687 527.407 619.855 529.765 617.235C533.287 615.232 536.571 613.016 538.929 610.396C540.216 608.968 539.91 607.399 538.939 606.093C539.368 605.617 540.011 604.903 540.203 604.213C557.404 595.125 576.311 588.435 591.003 574.502C603.315 562.736 617.378 554.272 628.03 541.011C638.896 527.513 634.824 509.618 646.164 496.547C651.501 490.142 659.278 487.228 665.113 481.703C669.017 478.32 672.662 474.272 676.092 470.462C680.215 475.899 684.79 481.312 688.01 486.798C689.738 489.647 691.467 492.497 693.195 495.347C680.163 510.775 666.893 525.99 656.492 544.219C636.953 578.796 607.928 604.831 573.165 624.838Z" fill="#DCDAD1" fill-opacity="0.39"/>
</svg>
